M48
; DRILL file {KiCad 8.0.3} date 2024-06-17T11:34:02+0200
; FORMAT={-:-/ absolute / metric / decimal}
; #@! TF.CreationDate,2024-06-17T11:34:02+02:00
; #@! TF.GenerationSoftware,Kicad,Pcbnew,8.0.3
; #@! TF.FileFunction,Plated,1,2,PTH
FMAT,2
METRIC
; #@! TA.AperFunction,Plated,PTH,ComponentDrill
T1C0.760
; #@! TA.AperFunction,Plated,PTH,ComponentDrill
T2C1.000
; #@! TA.AperFunction,Plated,PTH,ComponentDrill
T3C1.400
%
G90
G05
T1
X144.394Y-113.134
X145.664Y-115.674
X146.934Y-113.134
X148.204Y-115.674
X149.474Y-113.134
X150.744Y-115.674
T2
X133.096Y-55.626
X133.096Y-58.166
X133.096Y-60.706
X133.096Y-63.246
X133.096Y-65.786
X133.096Y-68.326
X133.096Y-70.866
X133.096Y-73.406
X133.096Y-75.946
X133.096Y-78.486
X133.096Y-81.026
X133.096Y-83.566
X133.096Y-86.106
X133.096Y-88.646
X133.096Y-91.186
X133.096Y-96.266
X133.096Y-98.806
X133.096Y-101.346
X133.096Y-103.886
X133.138Y-93.726
X150.876Y-55.626
X150.876Y-58.166
X150.876Y-60.706
X150.876Y-63.246
X150.876Y-65.786
X150.876Y-68.326
X150.876Y-70.866
X150.876Y-73.406
X150.876Y-75.946
X150.876Y-78.486
X150.876Y-81.026
X150.876Y-83.566
X150.876Y-86.106
X150.876Y-88.646
X150.876Y-91.186
X150.876Y-93.726
X150.876Y-96.266
X150.876Y-98.806
X150.876Y-101.346
X150.876Y-103.886
T3
X156.718Y-84.328
X156.718Y-104.648
M30
