G04 #@! TF.GenerationSoftware,KiCad,Pcbnew,8.0.3*
G04 #@! TF.CreationDate,2024-06-17T11:33:57+02:00*
G04 #@! TF.ProjectId,Rasppipico f_r HAN-port,52617370-7069-4706-9963-6f2066f67220,rev?*
G04 #@! TF.SameCoordinates,Original*
G04 #@! TF.FileFunction,Legend,Top*
G04 #@! TF.FilePolarity,Positive*
%FSLAX46Y46*%
G04 Gerber Fmt 4.6, Leading zero omitted, Abs format (unit mm)*
G04 Created by KiCad (PCBNEW 8.0.3) date 2024-06-17 11:33:57*
%MOMM*%
%LPD*%
G01*
G04 APERTURE LIST*
G04 Aperture macros list*
%AMRoundRect*
0 Rectangle with rounded corners*
0 $1 Rounding radius*
0 $2 $3 $4 $5 $6 $7 $8 $9 X,Y pos of 4 corners*
0 Add a 4 corners polygon primitive as box body*
4,1,4,$2,$3,$4,$5,$6,$7,$8,$9,$2,$3,0*
0 Add four circle primitives for the rounded corners*
1,1,$1+$1,$2,$3*
1,1,$1+$1,$4,$5*
1,1,$1+$1,$6,$7*
1,1,$1+$1,$8,$9*
0 Add four rect primitives between the rounded corners*
20,1,$1+$1,$2,$3,$4,$5,0*
20,1,$1+$1,$4,$5,$6,$7,0*
20,1,$1+$1,$6,$7,$8,$9,0*
20,1,$1+$1,$8,$9,$2,$3,0*%
G04 Aperture macros list end*
%ADD10C,0.150000*%
%ADD11C,0.120000*%
%ADD12C,0.127000*%
%ADD13C,0.300000*%
%ADD14C,3.250000*%
%ADD15RoundRect,0.250000X-0.510000X-0.510000X0.510000X-0.510000X0.510000X0.510000X-0.510000X0.510000X0*%
%ADD16C,1.520000*%
%ADD17C,1.600000*%
%ADD18RoundRect,0.200000X-0.600000X-0.600000X0.600000X-0.600000X0.600000X0.600000X-0.600000X0.600000X0*%
%ADD19O,2.800000X2.800000*%
%ADD20C,2.800000*%
G04 APERTURE END LIST*
D10*
X142400666Y-110428819D02*
X142400666Y-111143104D01*
X142400666Y-111143104D02*
X142353047Y-111285961D01*
X142353047Y-111285961D02*
X142257809Y-111381200D01*
X142257809Y-111381200D02*
X142114952Y-111428819D01*
X142114952Y-111428819D02*
X142019714Y-111428819D01*
X143400666Y-111428819D02*
X142829238Y-111428819D01*
X143114952Y-111428819D02*
X143114952Y-110428819D01*
X143114952Y-110428819D02*
X143019714Y-110571676D01*
X143019714Y-110571676D02*
X142924476Y-110666914D01*
X142924476Y-110666914D02*
X142829238Y-110714533D01*
X132946714Y-51290104D02*
X133422904Y-51290104D01*
X132851476Y-51575819D02*
X133184809Y-50575819D01*
X133184809Y-50575819D02*
X133518142Y-51575819D01*
X134375285Y-51575819D02*
X133803857Y-51575819D01*
X134089571Y-51575819D02*
X134089571Y-50575819D01*
X134089571Y-50575819D02*
X133994333Y-50718676D01*
X133994333Y-50718676D02*
X133899095Y-50813914D01*
X133899095Y-50813914D02*
X133803857Y-50861533D01*
X161142819Y-94654666D02*
X160666628Y-94987999D01*
X161142819Y-95226094D02*
X160142819Y-95226094D01*
X160142819Y-95226094D02*
X160142819Y-94845142D01*
X160142819Y-94845142D02*
X160190438Y-94749904D01*
X160190438Y-94749904D02*
X160238057Y-94702285D01*
X160238057Y-94702285D02*
X160333295Y-94654666D01*
X160333295Y-94654666D02*
X160476152Y-94654666D01*
X160476152Y-94654666D02*
X160571390Y-94702285D01*
X160571390Y-94702285D02*
X160619009Y-94749904D01*
X160619009Y-94749904D02*
X160666628Y-94845142D01*
X160666628Y-94845142D02*
X160666628Y-95226094D01*
X161142819Y-93702285D02*
X161142819Y-94273713D01*
X161142819Y-93987999D02*
X160142819Y-93987999D01*
X160142819Y-93987999D02*
X160285676Y-94083237D01*
X160285676Y-94083237D02*
X160380914Y-94178475D01*
X160380914Y-94178475D02*
X160428533Y-94273713D01*
D11*
X140554000Y-113904000D02*
X140554000Y-112374000D01*
X140864000Y-111794000D02*
X154284000Y-111794000D01*
X140864000Y-120924000D02*
X140864000Y-111794000D01*
X140864000Y-123584000D02*
X140864000Y-123124000D01*
X154284000Y-111794000D02*
X154284000Y-120924000D01*
X154284000Y-123584000D02*
X154284000Y-123124000D01*
D12*
X131486000Y-54256000D02*
X137986000Y-54256000D01*
X131486000Y-54506000D02*
X131486000Y-54256000D01*
X131486000Y-105256000D02*
X131486000Y-105006000D01*
X137986000Y-52956000D02*
X145986000Y-52956000D01*
X137986000Y-54256000D02*
X137986000Y-52956000D01*
X138326000Y-105256000D02*
X131486000Y-105256000D01*
X145986000Y-52956000D02*
X145986000Y-54256000D01*
X145986000Y-54256000D02*
X152486000Y-54256000D01*
X152486000Y-54256000D02*
X152486000Y-54506000D01*
X152486000Y-105256000D02*
X145646000Y-105256000D01*
X152486000Y-105256000D02*
X152486000Y-105006000D01*
D13*
X129946000Y-55626000D02*
G75*
G02*
X129646000Y-55626000I-150000J0D01*
G01*
X129646000Y-55626000D02*
G75*
G02*
X129946000Y-55626000I150000J0D01*
G01*
D11*
X156718000Y-103008000D02*
X156718000Y-101758000D01*
X153748000Y-101758000D02*
X159688000Y-101758000D01*
X159688000Y-101758000D02*
X159688000Y-87218000D01*
X153748000Y-87218000D02*
X153748000Y-101758000D01*
X159688000Y-87218000D02*
X153748000Y-87218000D01*
X156718000Y-85968000D02*
X156718000Y-87218000D01*
%LPC*%
D14*
X142494000Y-122024000D03*
X152654000Y-122024000D03*
D15*
X144394000Y-113134000D03*
D16*
X145664000Y-115674000D03*
X146934000Y-113134000D03*
X148204000Y-115674000D03*
X149474000Y-113134000D03*
X150744000Y-115674000D03*
D17*
X133096000Y-55626000D03*
X133096000Y-58166000D03*
D18*
X133096000Y-60706000D03*
D17*
X133096000Y-63246000D03*
X133096000Y-65786000D03*
X133096000Y-68326000D03*
X133096000Y-70866000D03*
D18*
X133096000Y-73406000D03*
D17*
X133096000Y-75946000D03*
X133096000Y-78486000D03*
X133096000Y-81026000D03*
X133096000Y-83566000D03*
D18*
X133096000Y-86106000D03*
D17*
X133096000Y-88646000D03*
X133096000Y-91186000D03*
X133137881Y-93726000D03*
X133096000Y-96266000D03*
D18*
X133096000Y-98806000D03*
D17*
X133096000Y-101346000D03*
X133096000Y-103886000D03*
X150876000Y-103886000D03*
X150876000Y-101346000D03*
D18*
X150876000Y-98806000D03*
D17*
X150876000Y-96266000D03*
X150876000Y-93726000D03*
X150876000Y-91186000D03*
X150876000Y-88646000D03*
D18*
X150876000Y-86106000D03*
D17*
X150876000Y-83566000D03*
X150876000Y-81026000D03*
X150876000Y-78486000D03*
X150876000Y-75946000D03*
D18*
X150876000Y-73406000D03*
D17*
X150876000Y-70866000D03*
X150876000Y-68326000D03*
X150876000Y-65786000D03*
X150876000Y-63246000D03*
D18*
X150876000Y-60706000D03*
D17*
X150876000Y-58166000D03*
X150876000Y-55626000D03*
D19*
X156718000Y-104648000D03*
D20*
X156718000Y-84328000D03*
%LPD*%
M02*
