G04 #@! TF.GenerationSoftware,KiCad,Pcbnew,8.0.3*
G04 #@! TF.CreationDate,2024-06-17T17:54:27+02:00*
G04 #@! TF.ProjectId,Rasppipico f_r HAN-port,52617370-7069-4706-9963-6f2066f67220,rev?*
G04 #@! TF.SameCoordinates,Original*
G04 #@! TF.FileFunction,Copper,L2,Bot*
G04 #@! TF.FilePolarity,Positive*
%FSLAX46Y46*%
G04 Gerber Fmt 4.6, Leading zero omitted, Abs format (unit mm)*
G04 Created by KiCad (PCBNEW 8.0.3) date 2024-06-17 17:54:27*
%MOMM*%
%LPD*%
G01*
G04 APERTURE LIST*
G04 Aperture macros list*
%AMRoundRect*
0 Rectangle with rounded corners*
0 $1 Rounding radius*
0 $2 $3 $4 $5 $6 $7 $8 $9 X,Y pos of 4 corners*
0 Add a 4 corners polygon primitive as box body*
4,1,4,$2,$3,$4,$5,$6,$7,$8,$9,$2,$3,0*
0 Add four circle primitives for the rounded corners*
1,1,$1+$1,$2,$3*
1,1,$1+$1,$4,$5*
1,1,$1+$1,$6,$7*
1,1,$1+$1,$8,$9*
0 Add four rect primitives between the rounded corners*
20,1,$1+$1,$2,$3,$4,$5,0*
20,1,$1+$1,$4,$5,$6,$7,0*
20,1,$1+$1,$6,$7,$8,$9,0*
20,1,$1+$1,$8,$9,$2,$3,0*%
G04 Aperture macros list end*
G04 #@! TA.AperFunction,ComponentPad*
%ADD10O,1.600000X1.600000*%
G04 #@! TD*
G04 #@! TA.AperFunction,ComponentPad*
%ADD11C,1.600000*%
G04 #@! TD*
G04 #@! TA.AperFunction,ComponentPad*
%ADD12C,1.520000*%
G04 #@! TD*
G04 #@! TA.AperFunction,ComponentPad*
%ADD13RoundRect,0.250000X-0.510000X0.510000X-0.510000X-0.510000X0.510000X-0.510000X0.510000X0.510000X0*%
G04 #@! TD*
G04 #@! TA.AperFunction,ComponentPad*
%ADD14RoundRect,0.200000X-0.600000X0.600000X-0.600000X-0.600000X0.600000X-0.600000X0.600000X0.600000X0*%
G04 #@! TD*
G04 APERTURE END LIST*
D10*
X133512000Y-102718000D03*
D11*
X143672000Y-102718000D03*
D12*
X110350000Y-96744000D03*
X112890000Y-95474000D03*
X110350000Y-94204000D03*
X112890000Y-92934000D03*
X110350000Y-91664000D03*
D13*
X112890000Y-90394000D03*
D11*
X172374000Y-79096000D03*
X169834000Y-79096000D03*
D14*
X167294000Y-79096000D03*
D11*
X164754000Y-79096000D03*
X162214000Y-79096000D03*
X159674000Y-79096000D03*
X157134000Y-79096000D03*
D14*
X154594000Y-79096000D03*
D11*
X152054000Y-79096000D03*
X149514000Y-79096000D03*
X146974000Y-79096000D03*
X144434000Y-79096000D03*
D14*
X141894000Y-79096000D03*
D11*
X139354000Y-79096000D03*
X136814000Y-79096000D03*
X134274000Y-79137881D03*
X131734000Y-79096000D03*
D14*
X129194000Y-79096000D03*
D11*
X126654000Y-79096000D03*
X124114000Y-79096000D03*
X124114000Y-96876000D03*
X126654000Y-96876000D03*
D14*
X129194000Y-96876000D03*
D11*
X131734000Y-96876000D03*
X134274000Y-96876000D03*
X136814000Y-96876000D03*
X139354000Y-96876000D03*
D14*
X141894000Y-96876000D03*
D11*
X144434000Y-96876000D03*
X146974000Y-96876000D03*
X149514000Y-96876000D03*
X152054000Y-96876000D03*
D14*
X154594000Y-96876000D03*
D11*
X157134000Y-96876000D03*
X159674000Y-96876000D03*
X162214000Y-96876000D03*
X164754000Y-96876000D03*
D14*
X167294000Y-96876000D03*
D11*
X169834000Y-96876000D03*
X172374000Y-96876000D03*
M02*
