%TF.GenerationSoftware,KiCad,Pcbnew,8.0.3*%
%TF.CreationDate,2024-06-17T17:54:32+02:00*%
%TF.ProjectId,Rasppipico f_r HAN-port,52617370-7069-4706-9963-6f2066f67220,rev?*%
%TF.SameCoordinates,Original*%
%TF.FileFunction,Drillmap*%
%TF.FilePolarity,Positive*%
%FSLAX45Y45*%
G04 Gerber Fmt 4.5, Leading zero omitted, Abs format (unit mm)*
G04 Created by KiCad (PCBNEW 8.0.3) date 2024-06-17 17:54:32*
%MOMM*%
%LPD*%
G01*
G04 APERTURE LIST*
%ADD10C,0.050000*%
%ADD11C,0.200000*%
%ADD12C,0.100000*%
G04 APERTURE END LIST*
D10*
X9800000Y-7600000D02*
X17800000Y-7600000D01*
X17800000Y-11100000D01*
X9800000Y-11100000D01*
X9800000Y-7600000D01*
D11*
D12*
X10997000Y-9128400D02*
X11073000Y-9204400D01*
X11073000Y-9128400D02*
X10997000Y-9204400D01*
X10997000Y-9382400D02*
X11073000Y-9458400D01*
X11073000Y-9382400D02*
X10997000Y-9458400D01*
X10997000Y-9636400D02*
X11073000Y-9712400D01*
X11073000Y-9636400D02*
X10997000Y-9712400D01*
X11251000Y-9001400D02*
X11327000Y-9077400D01*
X11327000Y-9001400D02*
X11251000Y-9077400D01*
X11251000Y-9255400D02*
X11327000Y-9331400D01*
X11327000Y-9255400D02*
X11251000Y-9331400D01*
X11251000Y-9509400D02*
X11327000Y-9585400D01*
X11327000Y-9509400D02*
X11251000Y-9585400D01*
X13391200Y-10271800D02*
G75*
G02*
X13311200Y-10271800I-40000J0D01*
G01*
X13311200Y-10271800D02*
G75*
G02*
X13391200Y-10271800I40000J0D01*
G01*
X14407200Y-10271800D02*
G75*
G02*
X14327200Y-10271800I-40000J0D01*
G01*
X14327200Y-10271800D02*
G75*
G02*
X14407200Y-10271800I40000J0D01*
G01*
X12411400Y-7859600D02*
X12411400Y-7959600D01*
X12361400Y-7909600D02*
X12461400Y-7909600D01*
X12411400Y-9637600D02*
X12411400Y-9737600D01*
X12361400Y-9687600D02*
X12461400Y-9687600D01*
X12665400Y-7859600D02*
X12665400Y-7959600D01*
X12615400Y-7909600D02*
X12715400Y-7909600D01*
X12665400Y-9637600D02*
X12665400Y-9737600D01*
X12615400Y-9687600D02*
X12715400Y-9687600D01*
X12919400Y-7859600D02*
X12919400Y-7959600D01*
X12869400Y-7909600D02*
X12969400Y-7909600D01*
X12919400Y-9637600D02*
X12919400Y-9737600D01*
X12869400Y-9687600D02*
X12969400Y-9687600D01*
X13173400Y-7859600D02*
X13173400Y-7959600D01*
X13123400Y-7909600D02*
X13223400Y-7909600D01*
X13173400Y-9637600D02*
X13173400Y-9737600D01*
X13123400Y-9687600D02*
X13223400Y-9687600D01*
X13427400Y-7863788D02*
X13427400Y-7963788D01*
X13377400Y-7913788D02*
X13477400Y-7913788D01*
X13427400Y-9637600D02*
X13427400Y-9737600D01*
X13377400Y-9687600D02*
X13477400Y-9687600D01*
X13681400Y-7859600D02*
X13681400Y-7959600D01*
X13631400Y-7909600D02*
X13731400Y-7909600D01*
X13681400Y-9637600D02*
X13681400Y-9737600D01*
X13631400Y-9687600D02*
X13731400Y-9687600D01*
X13935400Y-7859600D02*
X13935400Y-7959600D01*
X13885400Y-7909600D02*
X13985400Y-7909600D01*
X13935400Y-9637600D02*
X13935400Y-9737600D01*
X13885400Y-9687600D02*
X13985400Y-9687600D01*
X14189400Y-7859600D02*
X14189400Y-7959600D01*
X14139400Y-7909600D02*
X14239400Y-7909600D01*
X14189400Y-9637600D02*
X14189400Y-9737600D01*
X14139400Y-9687600D02*
X14239400Y-9687600D01*
X14443400Y-7859600D02*
X14443400Y-7959600D01*
X14393400Y-7909600D02*
X14493400Y-7909600D01*
X14443400Y-9637600D02*
X14443400Y-9737600D01*
X14393400Y-9687600D02*
X14493400Y-9687600D01*
X14697400Y-7859600D02*
X14697400Y-7959600D01*
X14647400Y-7909600D02*
X14747400Y-7909600D01*
X14697400Y-9637600D02*
X14697400Y-9737600D01*
X14647400Y-9687600D02*
X14747400Y-9687600D01*
X14951400Y-7859600D02*
X14951400Y-7959600D01*
X14901400Y-7909600D02*
X15001400Y-7909600D01*
X14951400Y-9637600D02*
X14951400Y-9737600D01*
X14901400Y-9687600D02*
X15001400Y-9687600D01*
X15205400Y-7859600D02*
X15205400Y-7959600D01*
X15155400Y-7909600D02*
X15255400Y-7909600D01*
X15205400Y-9637600D02*
X15205400Y-9737600D01*
X15155400Y-9687600D02*
X15255400Y-9687600D01*
X15459400Y-7859600D02*
X15459400Y-7959600D01*
X15409400Y-7909600D02*
X15509400Y-7909600D01*
X15459400Y-9637600D02*
X15459400Y-9737600D01*
X15409400Y-9687600D02*
X15509400Y-9687600D01*
X15713400Y-7859600D02*
X15713400Y-7959600D01*
X15663400Y-7909600D02*
X15763400Y-7909600D01*
X15713400Y-9637600D02*
X15713400Y-9737600D01*
X15663400Y-9687600D02*
X15763400Y-9687600D01*
X15967400Y-7859600D02*
X15967400Y-7959600D01*
X15917400Y-7909600D02*
X16017400Y-7909600D01*
X15967400Y-9637600D02*
X15967400Y-9737600D01*
X15917400Y-9687600D02*
X16017400Y-9687600D01*
X16221400Y-7859600D02*
X16221400Y-7959600D01*
X16171400Y-7909600D02*
X16271400Y-7909600D01*
X16221400Y-9637600D02*
X16221400Y-9737600D01*
X16171400Y-9687600D02*
X16271400Y-9687600D01*
X16475400Y-7859600D02*
X16475400Y-7959600D01*
X16425400Y-7909600D02*
X16525400Y-7909600D01*
X16475400Y-9637600D02*
X16475400Y-9737600D01*
X16425400Y-9687600D02*
X16525400Y-9687600D01*
X16729400Y-7859600D02*
X16729400Y-7959600D01*
X16679400Y-7909600D02*
X16779400Y-7909600D01*
X16729400Y-9637600D02*
X16729400Y-9737600D01*
X16679400Y-9687600D02*
X16779400Y-9687600D01*
X16983400Y-7859600D02*
X16983400Y-7959600D01*
X16933400Y-7909600D02*
X17033400Y-7909600D01*
X16983400Y-9637600D02*
X16983400Y-9737600D01*
X16933400Y-9687600D02*
X17033400Y-9687600D01*
X17237400Y-7859600D02*
X17237400Y-7959600D01*
X17187400Y-7909600D02*
X17287400Y-7909600D01*
X17237400Y-9637600D02*
X17237400Y-9737600D01*
X17187400Y-9687600D02*
X17287400Y-9687600D01*
D11*
X10058277Y-11413984D02*
X10058277Y-11213984D01*
X10058277Y-11213984D02*
X10105896Y-11213984D01*
X10105896Y-11213984D02*
X10134467Y-11223508D01*
X10134467Y-11223508D02*
X10153515Y-11242555D01*
X10153515Y-11242555D02*
X10163039Y-11261603D01*
X10163039Y-11261603D02*
X10172563Y-11299698D01*
X10172563Y-11299698D02*
X10172563Y-11328269D01*
X10172563Y-11328269D02*
X10163039Y-11366365D01*
X10163039Y-11366365D02*
X10153515Y-11385412D01*
X10153515Y-11385412D02*
X10134467Y-11404460D01*
X10134467Y-11404460D02*
X10105896Y-11413984D01*
X10105896Y-11413984D02*
X10058277Y-11413984D01*
X10258277Y-11413984D02*
X10258277Y-11280650D01*
X10258277Y-11318746D02*
X10267801Y-11299698D01*
X10267801Y-11299698D02*
X10277324Y-11290174D01*
X10277324Y-11290174D02*
X10296372Y-11280650D01*
X10296372Y-11280650D02*
X10315420Y-11280650D01*
X10382086Y-11413984D02*
X10382086Y-11280650D01*
X10382086Y-11213984D02*
X10372563Y-11223508D01*
X10372563Y-11223508D02*
X10382086Y-11233031D01*
X10382086Y-11233031D02*
X10391610Y-11223508D01*
X10391610Y-11223508D02*
X10382086Y-11213984D01*
X10382086Y-11213984D02*
X10382086Y-11233031D01*
X10505896Y-11413984D02*
X10486848Y-11404460D01*
X10486848Y-11404460D02*
X10477324Y-11385412D01*
X10477324Y-11385412D02*
X10477324Y-11213984D01*
X10610658Y-11413984D02*
X10591610Y-11404460D01*
X10591610Y-11404460D02*
X10582086Y-11385412D01*
X10582086Y-11385412D02*
X10582086Y-11213984D01*
X10839229Y-11413984D02*
X10839229Y-11213984D01*
X10839229Y-11213984D02*
X10905896Y-11356841D01*
X10905896Y-11356841D02*
X10972563Y-11213984D01*
X10972563Y-11213984D02*
X10972563Y-11413984D01*
X11153515Y-11413984D02*
X11153515Y-11309222D01*
X11153515Y-11309222D02*
X11143991Y-11290174D01*
X11143991Y-11290174D02*
X11124944Y-11280650D01*
X11124944Y-11280650D02*
X11086848Y-11280650D01*
X11086848Y-11280650D02*
X11067801Y-11290174D01*
X11153515Y-11404460D02*
X11134467Y-11413984D01*
X11134467Y-11413984D02*
X11086848Y-11413984D01*
X11086848Y-11413984D02*
X11067801Y-11404460D01*
X11067801Y-11404460D02*
X11058277Y-11385412D01*
X11058277Y-11385412D02*
X11058277Y-11366365D01*
X11058277Y-11366365D02*
X11067801Y-11347317D01*
X11067801Y-11347317D02*
X11086848Y-11337793D01*
X11086848Y-11337793D02*
X11134467Y-11337793D01*
X11134467Y-11337793D02*
X11153515Y-11328269D01*
X11248753Y-11280650D02*
X11248753Y-11480650D01*
X11248753Y-11290174D02*
X11267801Y-11280650D01*
X11267801Y-11280650D02*
X11305896Y-11280650D01*
X11305896Y-11280650D02*
X11324943Y-11290174D01*
X11324943Y-11290174D02*
X11334467Y-11299698D01*
X11334467Y-11299698D02*
X11343991Y-11318746D01*
X11343991Y-11318746D02*
X11343991Y-11375888D01*
X11343991Y-11375888D02*
X11334467Y-11394936D01*
X11334467Y-11394936D02*
X11324943Y-11404460D01*
X11324943Y-11404460D02*
X11305896Y-11413984D01*
X11305896Y-11413984D02*
X11267801Y-11413984D01*
X11267801Y-11413984D02*
X11248753Y-11404460D01*
X11429705Y-11394936D02*
X11439229Y-11404460D01*
X11439229Y-11404460D02*
X11429705Y-11413984D01*
X11429705Y-11413984D02*
X11420182Y-11404460D01*
X11420182Y-11404460D02*
X11429705Y-11394936D01*
X11429705Y-11394936D02*
X11429705Y-11413984D01*
X11429705Y-11290174D02*
X11439229Y-11299698D01*
X11439229Y-11299698D02*
X11429705Y-11309222D01*
X11429705Y-11309222D02*
X11420182Y-11299698D01*
X11420182Y-11299698D02*
X11429705Y-11290174D01*
X11429705Y-11290174D02*
X11429705Y-11309222D01*
D12*
X9721500Y-11704500D02*
X9797500Y-11780500D01*
X9797500Y-11704500D02*
X9721500Y-11780500D01*
D11*
X10096372Y-11633984D02*
X10115420Y-11633984D01*
X10115420Y-11633984D02*
X10134467Y-11643508D01*
X10134467Y-11643508D02*
X10143991Y-11653031D01*
X10143991Y-11653031D02*
X10153515Y-11672079D01*
X10153515Y-11672079D02*
X10163039Y-11710174D01*
X10163039Y-11710174D02*
X10163039Y-11757793D01*
X10163039Y-11757793D02*
X10153515Y-11795888D01*
X10153515Y-11795888D02*
X10143991Y-11814936D01*
X10143991Y-11814936D02*
X10134467Y-11824460D01*
X10134467Y-11824460D02*
X10115420Y-11833984D01*
X10115420Y-11833984D02*
X10096372Y-11833984D01*
X10096372Y-11833984D02*
X10077324Y-11824460D01*
X10077324Y-11824460D02*
X10067801Y-11814936D01*
X10067801Y-11814936D02*
X10058277Y-11795888D01*
X10058277Y-11795888D02*
X10048753Y-11757793D01*
X10048753Y-11757793D02*
X10048753Y-11710174D01*
X10048753Y-11710174D02*
X10058277Y-11672079D01*
X10058277Y-11672079D02*
X10067801Y-11653031D01*
X10067801Y-11653031D02*
X10077324Y-11643508D01*
X10077324Y-11643508D02*
X10096372Y-11633984D01*
X10248753Y-11814936D02*
X10258277Y-11824460D01*
X10258277Y-11824460D02*
X10248753Y-11833984D01*
X10248753Y-11833984D02*
X10239229Y-11824460D01*
X10239229Y-11824460D02*
X10248753Y-11814936D01*
X10248753Y-11814936D02*
X10248753Y-11833984D01*
X10324944Y-11633984D02*
X10458277Y-11633984D01*
X10458277Y-11633984D02*
X10372563Y-11833984D01*
X10620182Y-11633984D02*
X10582086Y-11633984D01*
X10582086Y-11633984D02*
X10563039Y-11643508D01*
X10563039Y-11643508D02*
X10553515Y-11653031D01*
X10553515Y-11653031D02*
X10534467Y-11681603D01*
X10534467Y-11681603D02*
X10524944Y-11719698D01*
X10524944Y-11719698D02*
X10524944Y-11795888D01*
X10524944Y-11795888D02*
X10534467Y-11814936D01*
X10534467Y-11814936D02*
X10543991Y-11824460D01*
X10543991Y-11824460D02*
X10563039Y-11833984D01*
X10563039Y-11833984D02*
X10601134Y-11833984D01*
X10601134Y-11833984D02*
X10620182Y-11824460D01*
X10620182Y-11824460D02*
X10629705Y-11814936D01*
X10629705Y-11814936D02*
X10639229Y-11795888D01*
X10639229Y-11795888D02*
X10639229Y-11748269D01*
X10639229Y-11748269D02*
X10629705Y-11729222D01*
X10629705Y-11729222D02*
X10620182Y-11719698D01*
X10620182Y-11719698D02*
X10601134Y-11710174D01*
X10601134Y-11710174D02*
X10563039Y-11710174D01*
X10563039Y-11710174D02*
X10543991Y-11719698D01*
X10543991Y-11719698D02*
X10534467Y-11729222D01*
X10534467Y-11729222D02*
X10524944Y-11748269D01*
X10763039Y-11633984D02*
X10782086Y-11633984D01*
X10782086Y-11633984D02*
X10801134Y-11643508D01*
X10801134Y-11643508D02*
X10810658Y-11653031D01*
X10810658Y-11653031D02*
X10820182Y-11672079D01*
X10820182Y-11672079D02*
X10829705Y-11710174D01*
X10829705Y-11710174D02*
X10829705Y-11757793D01*
X10829705Y-11757793D02*
X10820182Y-11795888D01*
X10820182Y-11795888D02*
X10810658Y-11814936D01*
X10810658Y-11814936D02*
X10801134Y-11824460D01*
X10801134Y-11824460D02*
X10782086Y-11833984D01*
X10782086Y-11833984D02*
X10763039Y-11833984D01*
X10763039Y-11833984D02*
X10743991Y-11824460D01*
X10743991Y-11824460D02*
X10734467Y-11814936D01*
X10734467Y-11814936D02*
X10724944Y-11795888D01*
X10724944Y-11795888D02*
X10715420Y-11757793D01*
X10715420Y-11757793D02*
X10715420Y-11710174D01*
X10715420Y-11710174D02*
X10724944Y-11672079D01*
X10724944Y-11672079D02*
X10734467Y-11653031D01*
X10734467Y-11653031D02*
X10743991Y-11643508D01*
X10743991Y-11643508D02*
X10763039Y-11633984D01*
X10915420Y-11833984D02*
X10915420Y-11700650D01*
X10915420Y-11719698D02*
X10924944Y-11710174D01*
X10924944Y-11710174D02*
X10943991Y-11700650D01*
X10943991Y-11700650D02*
X10972563Y-11700650D01*
X10972563Y-11700650D02*
X10991610Y-11710174D01*
X10991610Y-11710174D02*
X11001134Y-11729222D01*
X11001134Y-11729222D02*
X11001134Y-11833984D01*
X11001134Y-11729222D02*
X11010658Y-11710174D01*
X11010658Y-11710174D02*
X11029705Y-11700650D01*
X11029705Y-11700650D02*
X11058277Y-11700650D01*
X11058277Y-11700650D02*
X11077325Y-11710174D01*
X11077325Y-11710174D02*
X11086848Y-11729222D01*
X11086848Y-11729222D02*
X11086848Y-11833984D01*
X11182086Y-11833984D02*
X11182086Y-11700650D01*
X11182086Y-11719698D02*
X11191610Y-11710174D01*
X11191610Y-11710174D02*
X11210658Y-11700650D01*
X11210658Y-11700650D02*
X11239229Y-11700650D01*
X11239229Y-11700650D02*
X11258277Y-11710174D01*
X11258277Y-11710174D02*
X11267801Y-11729222D01*
X11267801Y-11729222D02*
X11267801Y-11833984D01*
X11267801Y-11729222D02*
X11277324Y-11710174D01*
X11277324Y-11710174D02*
X11296372Y-11700650D01*
X11296372Y-11700650D02*
X11324943Y-11700650D01*
X11324943Y-11700650D02*
X11343991Y-11710174D01*
X11343991Y-11710174D02*
X11353515Y-11729222D01*
X11353515Y-11729222D02*
X11353515Y-11833984D01*
X11743991Y-11624460D02*
X11572563Y-11881603D01*
X12001134Y-11633984D02*
X12020182Y-11633984D01*
X12020182Y-11633984D02*
X12039229Y-11643508D01*
X12039229Y-11643508D02*
X12048753Y-11653031D01*
X12048753Y-11653031D02*
X12058277Y-11672079D01*
X12058277Y-11672079D02*
X12067801Y-11710174D01*
X12067801Y-11710174D02*
X12067801Y-11757793D01*
X12067801Y-11757793D02*
X12058277Y-11795888D01*
X12058277Y-11795888D02*
X12048753Y-11814936D01*
X12048753Y-11814936D02*
X12039229Y-11824460D01*
X12039229Y-11824460D02*
X12020182Y-11833984D01*
X12020182Y-11833984D02*
X12001134Y-11833984D01*
X12001134Y-11833984D02*
X11982086Y-11824460D01*
X11982086Y-11824460D02*
X11972563Y-11814936D01*
X11972563Y-11814936D02*
X11963039Y-11795888D01*
X11963039Y-11795888D02*
X11953515Y-11757793D01*
X11953515Y-11757793D02*
X11953515Y-11710174D01*
X11953515Y-11710174D02*
X11963039Y-11672079D01*
X11963039Y-11672079D02*
X11972563Y-11653031D01*
X11972563Y-11653031D02*
X11982086Y-11643508D01*
X11982086Y-11643508D02*
X12001134Y-11633984D01*
X12153515Y-11814936D02*
X12163039Y-11824460D01*
X12163039Y-11824460D02*
X12153515Y-11833984D01*
X12153515Y-11833984D02*
X12143991Y-11824460D01*
X12143991Y-11824460D02*
X12153515Y-11814936D01*
X12153515Y-11814936D02*
X12153515Y-11833984D01*
X12286848Y-11633984D02*
X12305896Y-11633984D01*
X12305896Y-11633984D02*
X12324944Y-11643508D01*
X12324944Y-11643508D02*
X12334467Y-11653031D01*
X12334467Y-11653031D02*
X12343991Y-11672079D01*
X12343991Y-11672079D02*
X12353515Y-11710174D01*
X12353515Y-11710174D02*
X12353515Y-11757793D01*
X12353515Y-11757793D02*
X12343991Y-11795888D01*
X12343991Y-11795888D02*
X12334467Y-11814936D01*
X12334467Y-11814936D02*
X12324944Y-11824460D01*
X12324944Y-11824460D02*
X12305896Y-11833984D01*
X12305896Y-11833984D02*
X12286848Y-11833984D01*
X12286848Y-11833984D02*
X12267801Y-11824460D01*
X12267801Y-11824460D02*
X12258277Y-11814936D01*
X12258277Y-11814936D02*
X12248753Y-11795888D01*
X12248753Y-11795888D02*
X12239229Y-11757793D01*
X12239229Y-11757793D02*
X12239229Y-11710174D01*
X12239229Y-11710174D02*
X12248753Y-11672079D01*
X12248753Y-11672079D02*
X12258277Y-11653031D01*
X12258277Y-11653031D02*
X12267801Y-11643508D01*
X12267801Y-11643508D02*
X12286848Y-11633984D01*
X12429706Y-11653031D02*
X12439229Y-11643508D01*
X12439229Y-11643508D02*
X12458277Y-11633984D01*
X12458277Y-11633984D02*
X12505896Y-11633984D01*
X12505896Y-11633984D02*
X12524944Y-11643508D01*
X12524944Y-11643508D02*
X12534467Y-11653031D01*
X12534467Y-11653031D02*
X12543991Y-11672079D01*
X12543991Y-11672079D02*
X12543991Y-11691127D01*
X12543991Y-11691127D02*
X12534467Y-11719698D01*
X12534467Y-11719698D02*
X12420182Y-11833984D01*
X12420182Y-11833984D02*
X12543991Y-11833984D01*
X12639229Y-11833984D02*
X12677325Y-11833984D01*
X12677325Y-11833984D02*
X12696372Y-11824460D01*
X12696372Y-11824460D02*
X12705896Y-11814936D01*
X12705896Y-11814936D02*
X12724944Y-11786365D01*
X12724944Y-11786365D02*
X12734467Y-11748269D01*
X12734467Y-11748269D02*
X12734467Y-11672079D01*
X12734467Y-11672079D02*
X12724944Y-11653031D01*
X12724944Y-11653031D02*
X12715420Y-11643508D01*
X12715420Y-11643508D02*
X12696372Y-11633984D01*
X12696372Y-11633984D02*
X12658277Y-11633984D01*
X12658277Y-11633984D02*
X12639229Y-11643508D01*
X12639229Y-11643508D02*
X12629706Y-11653031D01*
X12629706Y-11653031D02*
X12620182Y-11672079D01*
X12620182Y-11672079D02*
X12620182Y-11719698D01*
X12620182Y-11719698D02*
X12629706Y-11738746D01*
X12629706Y-11738746D02*
X12639229Y-11748269D01*
X12639229Y-11748269D02*
X12658277Y-11757793D01*
X12658277Y-11757793D02*
X12696372Y-11757793D01*
X12696372Y-11757793D02*
X12715420Y-11748269D01*
X12715420Y-11748269D02*
X12724944Y-11738746D01*
X12724944Y-11738746D02*
X12734467Y-11719698D01*
X12829706Y-11833984D02*
X12867801Y-11833984D01*
X12867801Y-11833984D02*
X12886848Y-11824460D01*
X12886848Y-11824460D02*
X12896372Y-11814936D01*
X12896372Y-11814936D02*
X12915420Y-11786365D01*
X12915420Y-11786365D02*
X12924944Y-11748269D01*
X12924944Y-11748269D02*
X12924944Y-11672079D01*
X12924944Y-11672079D02*
X12915420Y-11653031D01*
X12915420Y-11653031D02*
X12905896Y-11643508D01*
X12905896Y-11643508D02*
X12886848Y-11633984D01*
X12886848Y-11633984D02*
X12848753Y-11633984D01*
X12848753Y-11633984D02*
X12829706Y-11643508D01*
X12829706Y-11643508D02*
X12820182Y-11653031D01*
X12820182Y-11653031D02*
X12810658Y-11672079D01*
X12810658Y-11672079D02*
X12810658Y-11719698D01*
X12810658Y-11719698D02*
X12820182Y-11738746D01*
X12820182Y-11738746D02*
X12829706Y-11748269D01*
X12829706Y-11748269D02*
X12848753Y-11757793D01*
X12848753Y-11757793D02*
X12886848Y-11757793D01*
X12886848Y-11757793D02*
X12905896Y-11748269D01*
X12905896Y-11748269D02*
X12915420Y-11738746D01*
X12915420Y-11738746D02*
X12924944Y-11719698D01*
X13001134Y-11633984D02*
X13001134Y-11672079D01*
X13077325Y-11633984D02*
X13077325Y-11672079D01*
X13372563Y-11910174D02*
X13363039Y-11900650D01*
X13363039Y-11900650D02*
X13343991Y-11872079D01*
X13343991Y-11872079D02*
X13334468Y-11853031D01*
X13334468Y-11853031D02*
X13324944Y-11824460D01*
X13324944Y-11824460D02*
X13315420Y-11776841D01*
X13315420Y-11776841D02*
X13315420Y-11738746D01*
X13315420Y-11738746D02*
X13324944Y-11691127D01*
X13324944Y-11691127D02*
X13334468Y-11662555D01*
X13334468Y-11662555D02*
X13343991Y-11643508D01*
X13343991Y-11643508D02*
X13363039Y-11614936D01*
X13363039Y-11614936D02*
X13372563Y-11605412D01*
X13534468Y-11633984D02*
X13496372Y-11633984D01*
X13496372Y-11633984D02*
X13477325Y-11643508D01*
X13477325Y-11643508D02*
X13467801Y-11653031D01*
X13467801Y-11653031D02*
X13448753Y-11681603D01*
X13448753Y-11681603D02*
X13439229Y-11719698D01*
X13439229Y-11719698D02*
X13439229Y-11795888D01*
X13439229Y-11795888D02*
X13448753Y-11814936D01*
X13448753Y-11814936D02*
X13458277Y-11824460D01*
X13458277Y-11824460D02*
X13477325Y-11833984D01*
X13477325Y-11833984D02*
X13515420Y-11833984D01*
X13515420Y-11833984D02*
X13534468Y-11824460D01*
X13534468Y-11824460D02*
X13543991Y-11814936D01*
X13543991Y-11814936D02*
X13553515Y-11795888D01*
X13553515Y-11795888D02*
X13553515Y-11748269D01*
X13553515Y-11748269D02*
X13543991Y-11729222D01*
X13543991Y-11729222D02*
X13534468Y-11719698D01*
X13534468Y-11719698D02*
X13515420Y-11710174D01*
X13515420Y-11710174D02*
X13477325Y-11710174D01*
X13477325Y-11710174D02*
X13458277Y-11719698D01*
X13458277Y-11719698D02*
X13448753Y-11729222D01*
X13448753Y-11729222D02*
X13439229Y-11748269D01*
X13791610Y-11833984D02*
X13791610Y-11633984D01*
X13877325Y-11833984D02*
X13877325Y-11729222D01*
X13877325Y-11729222D02*
X13867801Y-11710174D01*
X13867801Y-11710174D02*
X13848753Y-11700650D01*
X13848753Y-11700650D02*
X13820182Y-11700650D01*
X13820182Y-11700650D02*
X13801134Y-11710174D01*
X13801134Y-11710174D02*
X13791610Y-11719698D01*
X14001134Y-11833984D02*
X13982087Y-11824460D01*
X13982087Y-11824460D02*
X13972563Y-11814936D01*
X13972563Y-11814936D02*
X13963039Y-11795888D01*
X13963039Y-11795888D02*
X13963039Y-11738746D01*
X13963039Y-11738746D02*
X13972563Y-11719698D01*
X13972563Y-11719698D02*
X13982087Y-11710174D01*
X13982087Y-11710174D02*
X14001134Y-11700650D01*
X14001134Y-11700650D02*
X14029706Y-11700650D01*
X14029706Y-11700650D02*
X14048753Y-11710174D01*
X14048753Y-11710174D02*
X14058277Y-11719698D01*
X14058277Y-11719698D02*
X14067801Y-11738746D01*
X14067801Y-11738746D02*
X14067801Y-11795888D01*
X14067801Y-11795888D02*
X14058277Y-11814936D01*
X14058277Y-11814936D02*
X14048753Y-11824460D01*
X14048753Y-11824460D02*
X14029706Y-11833984D01*
X14029706Y-11833984D02*
X14001134Y-11833984D01*
X14182087Y-11833984D02*
X14163039Y-11824460D01*
X14163039Y-11824460D02*
X14153515Y-11805412D01*
X14153515Y-11805412D02*
X14153515Y-11633984D01*
X14334468Y-11824460D02*
X14315420Y-11833984D01*
X14315420Y-11833984D02*
X14277325Y-11833984D01*
X14277325Y-11833984D02*
X14258277Y-11824460D01*
X14258277Y-11824460D02*
X14248753Y-11805412D01*
X14248753Y-11805412D02*
X14248753Y-11729222D01*
X14248753Y-11729222D02*
X14258277Y-11710174D01*
X14258277Y-11710174D02*
X14277325Y-11700650D01*
X14277325Y-11700650D02*
X14315420Y-11700650D01*
X14315420Y-11700650D02*
X14334468Y-11710174D01*
X14334468Y-11710174D02*
X14343991Y-11729222D01*
X14343991Y-11729222D02*
X14343991Y-11748269D01*
X14343991Y-11748269D02*
X14248753Y-11767317D01*
X14420182Y-11824460D02*
X14439230Y-11833984D01*
X14439230Y-11833984D02*
X14477325Y-11833984D01*
X14477325Y-11833984D02*
X14496372Y-11824460D01*
X14496372Y-11824460D02*
X14505896Y-11805412D01*
X14505896Y-11805412D02*
X14505896Y-11795888D01*
X14505896Y-11795888D02*
X14496372Y-11776841D01*
X14496372Y-11776841D02*
X14477325Y-11767317D01*
X14477325Y-11767317D02*
X14448753Y-11767317D01*
X14448753Y-11767317D02*
X14429706Y-11757793D01*
X14429706Y-11757793D02*
X14420182Y-11738746D01*
X14420182Y-11738746D02*
X14420182Y-11729222D01*
X14420182Y-11729222D02*
X14429706Y-11710174D01*
X14429706Y-11710174D02*
X14448753Y-11700650D01*
X14448753Y-11700650D02*
X14477325Y-11700650D01*
X14477325Y-11700650D02*
X14496372Y-11710174D01*
X14572563Y-11910174D02*
X14582087Y-11900650D01*
X14582087Y-11900650D02*
X14601134Y-11872079D01*
X14601134Y-11872079D02*
X14610658Y-11853031D01*
X14610658Y-11853031D02*
X14620182Y-11824460D01*
X14620182Y-11824460D02*
X14629706Y-11776841D01*
X14629706Y-11776841D02*
X14629706Y-11738746D01*
X14629706Y-11738746D02*
X14620182Y-11691127D01*
X14620182Y-11691127D02*
X14610658Y-11662555D01*
X14610658Y-11662555D02*
X14601134Y-11643508D01*
X14601134Y-11643508D02*
X14582087Y-11614936D01*
X14582087Y-11614936D02*
X14572563Y-11605412D01*
D12*
X9797500Y-12006500D02*
G75*
G02*
X9717500Y-12006500I-40000J0D01*
G01*
X9717500Y-12006500D02*
G75*
G02*
X9797500Y-12006500I40000J0D01*
G01*
D11*
X10096372Y-11897984D02*
X10115420Y-11897984D01*
X10115420Y-11897984D02*
X10134467Y-11907508D01*
X10134467Y-11907508D02*
X10143991Y-11917031D01*
X10143991Y-11917031D02*
X10153515Y-11936079D01*
X10153515Y-11936079D02*
X10163039Y-11974174D01*
X10163039Y-11974174D02*
X10163039Y-12021793D01*
X10163039Y-12021793D02*
X10153515Y-12059888D01*
X10153515Y-12059888D02*
X10143991Y-12078936D01*
X10143991Y-12078936D02*
X10134467Y-12088460D01*
X10134467Y-12088460D02*
X10115420Y-12097984D01*
X10115420Y-12097984D02*
X10096372Y-12097984D01*
X10096372Y-12097984D02*
X10077324Y-12088460D01*
X10077324Y-12088460D02*
X10067801Y-12078936D01*
X10067801Y-12078936D02*
X10058277Y-12059888D01*
X10058277Y-12059888D02*
X10048753Y-12021793D01*
X10048753Y-12021793D02*
X10048753Y-11974174D01*
X10048753Y-11974174D02*
X10058277Y-11936079D01*
X10058277Y-11936079D02*
X10067801Y-11917031D01*
X10067801Y-11917031D02*
X10077324Y-11907508D01*
X10077324Y-11907508D02*
X10096372Y-11897984D01*
X10248753Y-12078936D02*
X10258277Y-12088460D01*
X10258277Y-12088460D02*
X10248753Y-12097984D01*
X10248753Y-12097984D02*
X10239229Y-12088460D01*
X10239229Y-12088460D02*
X10248753Y-12078936D01*
X10248753Y-12078936D02*
X10248753Y-12097984D01*
X10372563Y-11983698D02*
X10353515Y-11974174D01*
X10353515Y-11974174D02*
X10343991Y-11964650D01*
X10343991Y-11964650D02*
X10334467Y-11945603D01*
X10334467Y-11945603D02*
X10334467Y-11936079D01*
X10334467Y-11936079D02*
X10343991Y-11917031D01*
X10343991Y-11917031D02*
X10353515Y-11907508D01*
X10353515Y-11907508D02*
X10372563Y-11897984D01*
X10372563Y-11897984D02*
X10410658Y-11897984D01*
X10410658Y-11897984D02*
X10429705Y-11907508D01*
X10429705Y-11907508D02*
X10439229Y-11917031D01*
X10439229Y-11917031D02*
X10448753Y-11936079D01*
X10448753Y-11936079D02*
X10448753Y-11945603D01*
X10448753Y-11945603D02*
X10439229Y-11964650D01*
X10439229Y-11964650D02*
X10429705Y-11974174D01*
X10429705Y-11974174D02*
X10410658Y-11983698D01*
X10410658Y-11983698D02*
X10372563Y-11983698D01*
X10372563Y-11983698D02*
X10353515Y-11993222D01*
X10353515Y-11993222D02*
X10343991Y-12002746D01*
X10343991Y-12002746D02*
X10334467Y-12021793D01*
X10334467Y-12021793D02*
X10334467Y-12059888D01*
X10334467Y-12059888D02*
X10343991Y-12078936D01*
X10343991Y-12078936D02*
X10353515Y-12088460D01*
X10353515Y-12088460D02*
X10372563Y-12097984D01*
X10372563Y-12097984D02*
X10410658Y-12097984D01*
X10410658Y-12097984D02*
X10429705Y-12088460D01*
X10429705Y-12088460D02*
X10439229Y-12078936D01*
X10439229Y-12078936D02*
X10448753Y-12059888D01*
X10448753Y-12059888D02*
X10448753Y-12021793D01*
X10448753Y-12021793D02*
X10439229Y-12002746D01*
X10439229Y-12002746D02*
X10429705Y-11993222D01*
X10429705Y-11993222D02*
X10410658Y-11983698D01*
X10572563Y-11897984D02*
X10591610Y-11897984D01*
X10591610Y-11897984D02*
X10610658Y-11907508D01*
X10610658Y-11907508D02*
X10620182Y-11917031D01*
X10620182Y-11917031D02*
X10629705Y-11936079D01*
X10629705Y-11936079D02*
X10639229Y-11974174D01*
X10639229Y-11974174D02*
X10639229Y-12021793D01*
X10639229Y-12021793D02*
X10629705Y-12059888D01*
X10629705Y-12059888D02*
X10620182Y-12078936D01*
X10620182Y-12078936D02*
X10610658Y-12088460D01*
X10610658Y-12088460D02*
X10591610Y-12097984D01*
X10591610Y-12097984D02*
X10572563Y-12097984D01*
X10572563Y-12097984D02*
X10553515Y-12088460D01*
X10553515Y-12088460D02*
X10543991Y-12078936D01*
X10543991Y-12078936D02*
X10534467Y-12059888D01*
X10534467Y-12059888D02*
X10524944Y-12021793D01*
X10524944Y-12021793D02*
X10524944Y-11974174D01*
X10524944Y-11974174D02*
X10534467Y-11936079D01*
X10534467Y-11936079D02*
X10543991Y-11917031D01*
X10543991Y-11917031D02*
X10553515Y-11907508D01*
X10553515Y-11907508D02*
X10572563Y-11897984D01*
X10763039Y-11897984D02*
X10782086Y-11897984D01*
X10782086Y-11897984D02*
X10801134Y-11907508D01*
X10801134Y-11907508D02*
X10810658Y-11917031D01*
X10810658Y-11917031D02*
X10820182Y-11936079D01*
X10820182Y-11936079D02*
X10829705Y-11974174D01*
X10829705Y-11974174D02*
X10829705Y-12021793D01*
X10829705Y-12021793D02*
X10820182Y-12059888D01*
X10820182Y-12059888D02*
X10810658Y-12078936D01*
X10810658Y-12078936D02*
X10801134Y-12088460D01*
X10801134Y-12088460D02*
X10782086Y-12097984D01*
X10782086Y-12097984D02*
X10763039Y-12097984D01*
X10763039Y-12097984D02*
X10743991Y-12088460D01*
X10743991Y-12088460D02*
X10734467Y-12078936D01*
X10734467Y-12078936D02*
X10724944Y-12059888D01*
X10724944Y-12059888D02*
X10715420Y-12021793D01*
X10715420Y-12021793D02*
X10715420Y-11974174D01*
X10715420Y-11974174D02*
X10724944Y-11936079D01*
X10724944Y-11936079D02*
X10734467Y-11917031D01*
X10734467Y-11917031D02*
X10743991Y-11907508D01*
X10743991Y-11907508D02*
X10763039Y-11897984D01*
X10915420Y-12097984D02*
X10915420Y-11964650D01*
X10915420Y-11983698D02*
X10924944Y-11974174D01*
X10924944Y-11974174D02*
X10943991Y-11964650D01*
X10943991Y-11964650D02*
X10972563Y-11964650D01*
X10972563Y-11964650D02*
X10991610Y-11974174D01*
X10991610Y-11974174D02*
X11001134Y-11993222D01*
X11001134Y-11993222D02*
X11001134Y-12097984D01*
X11001134Y-11993222D02*
X11010658Y-11974174D01*
X11010658Y-11974174D02*
X11029705Y-11964650D01*
X11029705Y-11964650D02*
X11058277Y-11964650D01*
X11058277Y-11964650D02*
X11077325Y-11974174D01*
X11077325Y-11974174D02*
X11086848Y-11993222D01*
X11086848Y-11993222D02*
X11086848Y-12097984D01*
X11182086Y-12097984D02*
X11182086Y-11964650D01*
X11182086Y-11983698D02*
X11191610Y-11974174D01*
X11191610Y-11974174D02*
X11210658Y-11964650D01*
X11210658Y-11964650D02*
X11239229Y-11964650D01*
X11239229Y-11964650D02*
X11258277Y-11974174D01*
X11258277Y-11974174D02*
X11267801Y-11993222D01*
X11267801Y-11993222D02*
X11267801Y-12097984D01*
X11267801Y-11993222D02*
X11277324Y-11974174D01*
X11277324Y-11974174D02*
X11296372Y-11964650D01*
X11296372Y-11964650D02*
X11324943Y-11964650D01*
X11324943Y-11964650D02*
X11343991Y-11974174D01*
X11343991Y-11974174D02*
X11353515Y-11993222D01*
X11353515Y-11993222D02*
X11353515Y-12097984D01*
X11743991Y-11888460D02*
X11572563Y-12145603D01*
X12001134Y-11897984D02*
X12020182Y-11897984D01*
X12020182Y-11897984D02*
X12039229Y-11907508D01*
X12039229Y-11907508D02*
X12048753Y-11917031D01*
X12048753Y-11917031D02*
X12058277Y-11936079D01*
X12058277Y-11936079D02*
X12067801Y-11974174D01*
X12067801Y-11974174D02*
X12067801Y-12021793D01*
X12067801Y-12021793D02*
X12058277Y-12059888D01*
X12058277Y-12059888D02*
X12048753Y-12078936D01*
X12048753Y-12078936D02*
X12039229Y-12088460D01*
X12039229Y-12088460D02*
X12020182Y-12097984D01*
X12020182Y-12097984D02*
X12001134Y-12097984D01*
X12001134Y-12097984D02*
X11982086Y-12088460D01*
X11982086Y-12088460D02*
X11972563Y-12078936D01*
X11972563Y-12078936D02*
X11963039Y-12059888D01*
X11963039Y-12059888D02*
X11953515Y-12021793D01*
X11953515Y-12021793D02*
X11953515Y-11974174D01*
X11953515Y-11974174D02*
X11963039Y-11936079D01*
X11963039Y-11936079D02*
X11972563Y-11917031D01*
X11972563Y-11917031D02*
X11982086Y-11907508D01*
X11982086Y-11907508D02*
X12001134Y-11897984D01*
X12153515Y-12078936D02*
X12163039Y-12088460D01*
X12163039Y-12088460D02*
X12153515Y-12097984D01*
X12153515Y-12097984D02*
X12143991Y-12088460D01*
X12143991Y-12088460D02*
X12153515Y-12078936D01*
X12153515Y-12078936D02*
X12153515Y-12097984D01*
X12286848Y-11897984D02*
X12305896Y-11897984D01*
X12305896Y-11897984D02*
X12324944Y-11907508D01*
X12324944Y-11907508D02*
X12334467Y-11917031D01*
X12334467Y-11917031D02*
X12343991Y-11936079D01*
X12343991Y-11936079D02*
X12353515Y-11974174D01*
X12353515Y-11974174D02*
X12353515Y-12021793D01*
X12353515Y-12021793D02*
X12343991Y-12059888D01*
X12343991Y-12059888D02*
X12334467Y-12078936D01*
X12334467Y-12078936D02*
X12324944Y-12088460D01*
X12324944Y-12088460D02*
X12305896Y-12097984D01*
X12305896Y-12097984D02*
X12286848Y-12097984D01*
X12286848Y-12097984D02*
X12267801Y-12088460D01*
X12267801Y-12088460D02*
X12258277Y-12078936D01*
X12258277Y-12078936D02*
X12248753Y-12059888D01*
X12248753Y-12059888D02*
X12239229Y-12021793D01*
X12239229Y-12021793D02*
X12239229Y-11974174D01*
X12239229Y-11974174D02*
X12248753Y-11936079D01*
X12248753Y-11936079D02*
X12258277Y-11917031D01*
X12258277Y-11917031D02*
X12267801Y-11907508D01*
X12267801Y-11907508D02*
X12286848Y-11897984D01*
X12420182Y-11897984D02*
X12543991Y-11897984D01*
X12543991Y-11897984D02*
X12477325Y-11974174D01*
X12477325Y-11974174D02*
X12505896Y-11974174D01*
X12505896Y-11974174D02*
X12524944Y-11983698D01*
X12524944Y-11983698D02*
X12534467Y-11993222D01*
X12534467Y-11993222D02*
X12543991Y-12012269D01*
X12543991Y-12012269D02*
X12543991Y-12059888D01*
X12543991Y-12059888D02*
X12534467Y-12078936D01*
X12534467Y-12078936D02*
X12524944Y-12088460D01*
X12524944Y-12088460D02*
X12505896Y-12097984D01*
X12505896Y-12097984D02*
X12448753Y-12097984D01*
X12448753Y-12097984D02*
X12429706Y-12088460D01*
X12429706Y-12088460D02*
X12420182Y-12078936D01*
X12734467Y-12097984D02*
X12620182Y-12097984D01*
X12677325Y-12097984D02*
X12677325Y-11897984D01*
X12677325Y-11897984D02*
X12658277Y-11926555D01*
X12658277Y-11926555D02*
X12639229Y-11945603D01*
X12639229Y-11945603D02*
X12620182Y-11955127D01*
X12915420Y-11897984D02*
X12820182Y-11897984D01*
X12820182Y-11897984D02*
X12810658Y-11993222D01*
X12810658Y-11993222D02*
X12820182Y-11983698D01*
X12820182Y-11983698D02*
X12839229Y-11974174D01*
X12839229Y-11974174D02*
X12886848Y-11974174D01*
X12886848Y-11974174D02*
X12905896Y-11983698D01*
X12905896Y-11983698D02*
X12915420Y-11993222D01*
X12915420Y-11993222D02*
X12924944Y-12012269D01*
X12924944Y-12012269D02*
X12924944Y-12059888D01*
X12924944Y-12059888D02*
X12915420Y-12078936D01*
X12915420Y-12078936D02*
X12905896Y-12088460D01*
X12905896Y-12088460D02*
X12886848Y-12097984D01*
X12886848Y-12097984D02*
X12839229Y-12097984D01*
X12839229Y-12097984D02*
X12820182Y-12088460D01*
X12820182Y-12088460D02*
X12810658Y-12078936D01*
X13001134Y-11897984D02*
X13001134Y-11936079D01*
X13077325Y-11897984D02*
X13077325Y-11936079D01*
X13372563Y-12174174D02*
X13363039Y-12164650D01*
X13363039Y-12164650D02*
X13343991Y-12136079D01*
X13343991Y-12136079D02*
X13334468Y-12117031D01*
X13334468Y-12117031D02*
X13324944Y-12088460D01*
X13324944Y-12088460D02*
X13315420Y-12040841D01*
X13315420Y-12040841D02*
X13315420Y-12002746D01*
X13315420Y-12002746D02*
X13324944Y-11955127D01*
X13324944Y-11955127D02*
X13334468Y-11926555D01*
X13334468Y-11926555D02*
X13343991Y-11907508D01*
X13343991Y-11907508D02*
X13363039Y-11878936D01*
X13363039Y-11878936D02*
X13372563Y-11869412D01*
X13439229Y-11917031D02*
X13448753Y-11907508D01*
X13448753Y-11907508D02*
X13467801Y-11897984D01*
X13467801Y-11897984D02*
X13515420Y-11897984D01*
X13515420Y-11897984D02*
X13534468Y-11907508D01*
X13534468Y-11907508D02*
X13543991Y-11917031D01*
X13543991Y-11917031D02*
X13553515Y-11936079D01*
X13553515Y-11936079D02*
X13553515Y-11955127D01*
X13553515Y-11955127D02*
X13543991Y-11983698D01*
X13543991Y-11983698D02*
X13429706Y-12097984D01*
X13429706Y-12097984D02*
X13553515Y-12097984D01*
X13791610Y-12097984D02*
X13791610Y-11897984D01*
X13877325Y-12097984D02*
X13877325Y-11993222D01*
X13877325Y-11993222D02*
X13867801Y-11974174D01*
X13867801Y-11974174D02*
X13848753Y-11964650D01*
X13848753Y-11964650D02*
X13820182Y-11964650D01*
X13820182Y-11964650D02*
X13801134Y-11974174D01*
X13801134Y-11974174D02*
X13791610Y-11983698D01*
X14001134Y-12097984D02*
X13982087Y-12088460D01*
X13982087Y-12088460D02*
X13972563Y-12078936D01*
X13972563Y-12078936D02*
X13963039Y-12059888D01*
X13963039Y-12059888D02*
X13963039Y-12002746D01*
X13963039Y-12002746D02*
X13972563Y-11983698D01*
X13972563Y-11983698D02*
X13982087Y-11974174D01*
X13982087Y-11974174D02*
X14001134Y-11964650D01*
X14001134Y-11964650D02*
X14029706Y-11964650D01*
X14029706Y-11964650D02*
X14048753Y-11974174D01*
X14048753Y-11974174D02*
X14058277Y-11983698D01*
X14058277Y-11983698D02*
X14067801Y-12002746D01*
X14067801Y-12002746D02*
X14067801Y-12059888D01*
X14067801Y-12059888D02*
X14058277Y-12078936D01*
X14058277Y-12078936D02*
X14048753Y-12088460D01*
X14048753Y-12088460D02*
X14029706Y-12097984D01*
X14029706Y-12097984D02*
X14001134Y-12097984D01*
X14182087Y-12097984D02*
X14163039Y-12088460D01*
X14163039Y-12088460D02*
X14153515Y-12069412D01*
X14153515Y-12069412D02*
X14153515Y-11897984D01*
X14334468Y-12088460D02*
X14315420Y-12097984D01*
X14315420Y-12097984D02*
X14277325Y-12097984D01*
X14277325Y-12097984D02*
X14258277Y-12088460D01*
X14258277Y-12088460D02*
X14248753Y-12069412D01*
X14248753Y-12069412D02*
X14248753Y-11993222D01*
X14248753Y-11993222D02*
X14258277Y-11974174D01*
X14258277Y-11974174D02*
X14277325Y-11964650D01*
X14277325Y-11964650D02*
X14315420Y-11964650D01*
X14315420Y-11964650D02*
X14334468Y-11974174D01*
X14334468Y-11974174D02*
X14343991Y-11993222D01*
X14343991Y-11993222D02*
X14343991Y-12012269D01*
X14343991Y-12012269D02*
X14248753Y-12031317D01*
X14420182Y-12088460D02*
X14439230Y-12097984D01*
X14439230Y-12097984D02*
X14477325Y-12097984D01*
X14477325Y-12097984D02*
X14496372Y-12088460D01*
X14496372Y-12088460D02*
X14505896Y-12069412D01*
X14505896Y-12069412D02*
X14505896Y-12059888D01*
X14505896Y-12059888D02*
X14496372Y-12040841D01*
X14496372Y-12040841D02*
X14477325Y-12031317D01*
X14477325Y-12031317D02*
X14448753Y-12031317D01*
X14448753Y-12031317D02*
X14429706Y-12021793D01*
X14429706Y-12021793D02*
X14420182Y-12002746D01*
X14420182Y-12002746D02*
X14420182Y-11993222D01*
X14420182Y-11993222D02*
X14429706Y-11974174D01*
X14429706Y-11974174D02*
X14448753Y-11964650D01*
X14448753Y-11964650D02*
X14477325Y-11964650D01*
X14477325Y-11964650D02*
X14496372Y-11974174D01*
X14572563Y-12174174D02*
X14582087Y-12164650D01*
X14582087Y-12164650D02*
X14601134Y-12136079D01*
X14601134Y-12136079D02*
X14610658Y-12117031D01*
X14610658Y-12117031D02*
X14620182Y-12088460D01*
X14620182Y-12088460D02*
X14629706Y-12040841D01*
X14629706Y-12040841D02*
X14629706Y-12002746D01*
X14629706Y-12002746D02*
X14620182Y-11955127D01*
X14620182Y-11955127D02*
X14610658Y-11926555D01*
X14610658Y-11926555D02*
X14601134Y-11907508D01*
X14601134Y-11907508D02*
X14582087Y-11878936D01*
X14582087Y-11878936D02*
X14572563Y-11869412D01*
D12*
X9747500Y-12220500D02*
X9747500Y-12320500D01*
X9697500Y-12270500D02*
X9797500Y-12270500D01*
D11*
X10163039Y-12361984D02*
X10048753Y-12361984D01*
X10105896Y-12361984D02*
X10105896Y-12161984D01*
X10105896Y-12161984D02*
X10086848Y-12190555D01*
X10086848Y-12190555D02*
X10067801Y-12209603D01*
X10067801Y-12209603D02*
X10048753Y-12219127D01*
X10248753Y-12342936D02*
X10258277Y-12352460D01*
X10258277Y-12352460D02*
X10248753Y-12361984D01*
X10248753Y-12361984D02*
X10239229Y-12352460D01*
X10239229Y-12352460D02*
X10248753Y-12342936D01*
X10248753Y-12342936D02*
X10248753Y-12361984D01*
X10382086Y-12161984D02*
X10401134Y-12161984D01*
X10401134Y-12161984D02*
X10420182Y-12171508D01*
X10420182Y-12171508D02*
X10429705Y-12181031D01*
X10429705Y-12181031D02*
X10439229Y-12200079D01*
X10439229Y-12200079D02*
X10448753Y-12238174D01*
X10448753Y-12238174D02*
X10448753Y-12285793D01*
X10448753Y-12285793D02*
X10439229Y-12323888D01*
X10439229Y-12323888D02*
X10429705Y-12342936D01*
X10429705Y-12342936D02*
X10420182Y-12352460D01*
X10420182Y-12352460D02*
X10401134Y-12361984D01*
X10401134Y-12361984D02*
X10382086Y-12361984D01*
X10382086Y-12361984D02*
X10363039Y-12352460D01*
X10363039Y-12352460D02*
X10353515Y-12342936D01*
X10353515Y-12342936D02*
X10343991Y-12323888D01*
X10343991Y-12323888D02*
X10334467Y-12285793D01*
X10334467Y-12285793D02*
X10334467Y-12238174D01*
X10334467Y-12238174D02*
X10343991Y-12200079D01*
X10343991Y-12200079D02*
X10353515Y-12181031D01*
X10353515Y-12181031D02*
X10363039Y-12171508D01*
X10363039Y-12171508D02*
X10382086Y-12161984D01*
X10572563Y-12161984D02*
X10591610Y-12161984D01*
X10591610Y-12161984D02*
X10610658Y-12171508D01*
X10610658Y-12171508D02*
X10620182Y-12181031D01*
X10620182Y-12181031D02*
X10629705Y-12200079D01*
X10629705Y-12200079D02*
X10639229Y-12238174D01*
X10639229Y-12238174D02*
X10639229Y-12285793D01*
X10639229Y-12285793D02*
X10629705Y-12323888D01*
X10629705Y-12323888D02*
X10620182Y-12342936D01*
X10620182Y-12342936D02*
X10610658Y-12352460D01*
X10610658Y-12352460D02*
X10591610Y-12361984D01*
X10591610Y-12361984D02*
X10572563Y-12361984D01*
X10572563Y-12361984D02*
X10553515Y-12352460D01*
X10553515Y-12352460D02*
X10543991Y-12342936D01*
X10543991Y-12342936D02*
X10534467Y-12323888D01*
X10534467Y-12323888D02*
X10524944Y-12285793D01*
X10524944Y-12285793D02*
X10524944Y-12238174D01*
X10524944Y-12238174D02*
X10534467Y-12200079D01*
X10534467Y-12200079D02*
X10543991Y-12181031D01*
X10543991Y-12181031D02*
X10553515Y-12171508D01*
X10553515Y-12171508D02*
X10572563Y-12161984D01*
X10763039Y-12161984D02*
X10782086Y-12161984D01*
X10782086Y-12161984D02*
X10801134Y-12171508D01*
X10801134Y-12171508D02*
X10810658Y-12181031D01*
X10810658Y-12181031D02*
X10820182Y-12200079D01*
X10820182Y-12200079D02*
X10829705Y-12238174D01*
X10829705Y-12238174D02*
X10829705Y-12285793D01*
X10829705Y-12285793D02*
X10820182Y-12323888D01*
X10820182Y-12323888D02*
X10810658Y-12342936D01*
X10810658Y-12342936D02*
X10801134Y-12352460D01*
X10801134Y-12352460D02*
X10782086Y-12361984D01*
X10782086Y-12361984D02*
X10763039Y-12361984D01*
X10763039Y-12361984D02*
X10743991Y-12352460D01*
X10743991Y-12352460D02*
X10734467Y-12342936D01*
X10734467Y-12342936D02*
X10724944Y-12323888D01*
X10724944Y-12323888D02*
X10715420Y-12285793D01*
X10715420Y-12285793D02*
X10715420Y-12238174D01*
X10715420Y-12238174D02*
X10724944Y-12200079D01*
X10724944Y-12200079D02*
X10734467Y-12181031D01*
X10734467Y-12181031D02*
X10743991Y-12171508D01*
X10743991Y-12171508D02*
X10763039Y-12161984D01*
X10915420Y-12361984D02*
X10915420Y-12228650D01*
X10915420Y-12247698D02*
X10924944Y-12238174D01*
X10924944Y-12238174D02*
X10943991Y-12228650D01*
X10943991Y-12228650D02*
X10972563Y-12228650D01*
X10972563Y-12228650D02*
X10991610Y-12238174D01*
X10991610Y-12238174D02*
X11001134Y-12257222D01*
X11001134Y-12257222D02*
X11001134Y-12361984D01*
X11001134Y-12257222D02*
X11010658Y-12238174D01*
X11010658Y-12238174D02*
X11029705Y-12228650D01*
X11029705Y-12228650D02*
X11058277Y-12228650D01*
X11058277Y-12228650D02*
X11077325Y-12238174D01*
X11077325Y-12238174D02*
X11086848Y-12257222D01*
X11086848Y-12257222D02*
X11086848Y-12361984D01*
X11182086Y-12361984D02*
X11182086Y-12228650D01*
X11182086Y-12247698D02*
X11191610Y-12238174D01*
X11191610Y-12238174D02*
X11210658Y-12228650D01*
X11210658Y-12228650D02*
X11239229Y-12228650D01*
X11239229Y-12228650D02*
X11258277Y-12238174D01*
X11258277Y-12238174D02*
X11267801Y-12257222D01*
X11267801Y-12257222D02*
X11267801Y-12361984D01*
X11267801Y-12257222D02*
X11277324Y-12238174D01*
X11277324Y-12238174D02*
X11296372Y-12228650D01*
X11296372Y-12228650D02*
X11324943Y-12228650D01*
X11324943Y-12228650D02*
X11343991Y-12238174D01*
X11343991Y-12238174D02*
X11353515Y-12257222D01*
X11353515Y-12257222D02*
X11353515Y-12361984D01*
X11743991Y-12152460D02*
X11572563Y-12409603D01*
X12001134Y-12161984D02*
X12020182Y-12161984D01*
X12020182Y-12161984D02*
X12039229Y-12171508D01*
X12039229Y-12171508D02*
X12048753Y-12181031D01*
X12048753Y-12181031D02*
X12058277Y-12200079D01*
X12058277Y-12200079D02*
X12067801Y-12238174D01*
X12067801Y-12238174D02*
X12067801Y-12285793D01*
X12067801Y-12285793D02*
X12058277Y-12323888D01*
X12058277Y-12323888D02*
X12048753Y-12342936D01*
X12048753Y-12342936D02*
X12039229Y-12352460D01*
X12039229Y-12352460D02*
X12020182Y-12361984D01*
X12020182Y-12361984D02*
X12001134Y-12361984D01*
X12001134Y-12361984D02*
X11982086Y-12352460D01*
X11982086Y-12352460D02*
X11972563Y-12342936D01*
X11972563Y-12342936D02*
X11963039Y-12323888D01*
X11963039Y-12323888D02*
X11953515Y-12285793D01*
X11953515Y-12285793D02*
X11953515Y-12238174D01*
X11953515Y-12238174D02*
X11963039Y-12200079D01*
X11963039Y-12200079D02*
X11972563Y-12181031D01*
X11972563Y-12181031D02*
X11982086Y-12171508D01*
X11982086Y-12171508D02*
X12001134Y-12161984D01*
X12153515Y-12342936D02*
X12163039Y-12352460D01*
X12163039Y-12352460D02*
X12153515Y-12361984D01*
X12153515Y-12361984D02*
X12143991Y-12352460D01*
X12143991Y-12352460D02*
X12153515Y-12342936D01*
X12153515Y-12342936D02*
X12153515Y-12361984D01*
X12286848Y-12161984D02*
X12305896Y-12161984D01*
X12305896Y-12161984D02*
X12324944Y-12171508D01*
X12324944Y-12171508D02*
X12334467Y-12181031D01*
X12334467Y-12181031D02*
X12343991Y-12200079D01*
X12343991Y-12200079D02*
X12353515Y-12238174D01*
X12353515Y-12238174D02*
X12353515Y-12285793D01*
X12353515Y-12285793D02*
X12343991Y-12323888D01*
X12343991Y-12323888D02*
X12334467Y-12342936D01*
X12334467Y-12342936D02*
X12324944Y-12352460D01*
X12324944Y-12352460D02*
X12305896Y-12361984D01*
X12305896Y-12361984D02*
X12286848Y-12361984D01*
X12286848Y-12361984D02*
X12267801Y-12352460D01*
X12267801Y-12352460D02*
X12258277Y-12342936D01*
X12258277Y-12342936D02*
X12248753Y-12323888D01*
X12248753Y-12323888D02*
X12239229Y-12285793D01*
X12239229Y-12285793D02*
X12239229Y-12238174D01*
X12239229Y-12238174D02*
X12248753Y-12200079D01*
X12248753Y-12200079D02*
X12258277Y-12181031D01*
X12258277Y-12181031D02*
X12267801Y-12171508D01*
X12267801Y-12171508D02*
X12286848Y-12161984D01*
X12420182Y-12161984D02*
X12543991Y-12161984D01*
X12543991Y-12161984D02*
X12477325Y-12238174D01*
X12477325Y-12238174D02*
X12505896Y-12238174D01*
X12505896Y-12238174D02*
X12524944Y-12247698D01*
X12524944Y-12247698D02*
X12534467Y-12257222D01*
X12534467Y-12257222D02*
X12543991Y-12276269D01*
X12543991Y-12276269D02*
X12543991Y-12323888D01*
X12543991Y-12323888D02*
X12534467Y-12342936D01*
X12534467Y-12342936D02*
X12524944Y-12352460D01*
X12524944Y-12352460D02*
X12505896Y-12361984D01*
X12505896Y-12361984D02*
X12448753Y-12361984D01*
X12448753Y-12361984D02*
X12429706Y-12352460D01*
X12429706Y-12352460D02*
X12420182Y-12342936D01*
X12639229Y-12361984D02*
X12677325Y-12361984D01*
X12677325Y-12361984D02*
X12696372Y-12352460D01*
X12696372Y-12352460D02*
X12705896Y-12342936D01*
X12705896Y-12342936D02*
X12724944Y-12314365D01*
X12724944Y-12314365D02*
X12734467Y-12276269D01*
X12734467Y-12276269D02*
X12734467Y-12200079D01*
X12734467Y-12200079D02*
X12724944Y-12181031D01*
X12724944Y-12181031D02*
X12715420Y-12171508D01*
X12715420Y-12171508D02*
X12696372Y-12161984D01*
X12696372Y-12161984D02*
X12658277Y-12161984D01*
X12658277Y-12161984D02*
X12639229Y-12171508D01*
X12639229Y-12171508D02*
X12629706Y-12181031D01*
X12629706Y-12181031D02*
X12620182Y-12200079D01*
X12620182Y-12200079D02*
X12620182Y-12247698D01*
X12620182Y-12247698D02*
X12629706Y-12266746D01*
X12629706Y-12266746D02*
X12639229Y-12276269D01*
X12639229Y-12276269D02*
X12658277Y-12285793D01*
X12658277Y-12285793D02*
X12696372Y-12285793D01*
X12696372Y-12285793D02*
X12715420Y-12276269D01*
X12715420Y-12276269D02*
X12724944Y-12266746D01*
X12724944Y-12266746D02*
X12734467Y-12247698D01*
X12905896Y-12228650D02*
X12905896Y-12361984D01*
X12858277Y-12152460D02*
X12810658Y-12295317D01*
X12810658Y-12295317D02*
X12934467Y-12295317D01*
X13001134Y-12161984D02*
X13001134Y-12200079D01*
X13077325Y-12161984D02*
X13077325Y-12200079D01*
X13372563Y-12438174D02*
X13363039Y-12428650D01*
X13363039Y-12428650D02*
X13343991Y-12400079D01*
X13343991Y-12400079D02*
X13334468Y-12381031D01*
X13334468Y-12381031D02*
X13324944Y-12352460D01*
X13324944Y-12352460D02*
X13315420Y-12304841D01*
X13315420Y-12304841D02*
X13315420Y-12266746D01*
X13315420Y-12266746D02*
X13324944Y-12219127D01*
X13324944Y-12219127D02*
X13334468Y-12190555D01*
X13334468Y-12190555D02*
X13343991Y-12171508D01*
X13343991Y-12171508D02*
X13363039Y-12142936D01*
X13363039Y-12142936D02*
X13372563Y-12133412D01*
X13534468Y-12228650D02*
X13534468Y-12361984D01*
X13486848Y-12152460D02*
X13439229Y-12295317D01*
X13439229Y-12295317D02*
X13563039Y-12295317D01*
X13677325Y-12161984D02*
X13696372Y-12161984D01*
X13696372Y-12161984D02*
X13715420Y-12171508D01*
X13715420Y-12171508D02*
X13724944Y-12181031D01*
X13724944Y-12181031D02*
X13734468Y-12200079D01*
X13734468Y-12200079D02*
X13743991Y-12238174D01*
X13743991Y-12238174D02*
X13743991Y-12285793D01*
X13743991Y-12285793D02*
X13734468Y-12323888D01*
X13734468Y-12323888D02*
X13724944Y-12342936D01*
X13724944Y-12342936D02*
X13715420Y-12352460D01*
X13715420Y-12352460D02*
X13696372Y-12361984D01*
X13696372Y-12361984D02*
X13677325Y-12361984D01*
X13677325Y-12361984D02*
X13658277Y-12352460D01*
X13658277Y-12352460D02*
X13648753Y-12342936D01*
X13648753Y-12342936D02*
X13639229Y-12323888D01*
X13639229Y-12323888D02*
X13629706Y-12285793D01*
X13629706Y-12285793D02*
X13629706Y-12238174D01*
X13629706Y-12238174D02*
X13639229Y-12200079D01*
X13639229Y-12200079D02*
X13648753Y-12181031D01*
X13648753Y-12181031D02*
X13658277Y-12171508D01*
X13658277Y-12171508D02*
X13677325Y-12161984D01*
X13982087Y-12361984D02*
X13982087Y-12161984D01*
X14067801Y-12361984D02*
X14067801Y-12257222D01*
X14067801Y-12257222D02*
X14058277Y-12238174D01*
X14058277Y-12238174D02*
X14039230Y-12228650D01*
X14039230Y-12228650D02*
X14010658Y-12228650D01*
X14010658Y-12228650D02*
X13991610Y-12238174D01*
X13991610Y-12238174D02*
X13982087Y-12247698D01*
X14191610Y-12361984D02*
X14172563Y-12352460D01*
X14172563Y-12352460D02*
X14163039Y-12342936D01*
X14163039Y-12342936D02*
X14153515Y-12323888D01*
X14153515Y-12323888D02*
X14153515Y-12266746D01*
X14153515Y-12266746D02*
X14163039Y-12247698D01*
X14163039Y-12247698D02*
X14172563Y-12238174D01*
X14172563Y-12238174D02*
X14191610Y-12228650D01*
X14191610Y-12228650D02*
X14220182Y-12228650D01*
X14220182Y-12228650D02*
X14239230Y-12238174D01*
X14239230Y-12238174D02*
X14248753Y-12247698D01*
X14248753Y-12247698D02*
X14258277Y-12266746D01*
X14258277Y-12266746D02*
X14258277Y-12323888D01*
X14258277Y-12323888D02*
X14248753Y-12342936D01*
X14248753Y-12342936D02*
X14239230Y-12352460D01*
X14239230Y-12352460D02*
X14220182Y-12361984D01*
X14220182Y-12361984D02*
X14191610Y-12361984D01*
X14372563Y-12361984D02*
X14353515Y-12352460D01*
X14353515Y-12352460D02*
X14343991Y-12333412D01*
X14343991Y-12333412D02*
X14343991Y-12161984D01*
X14524944Y-12352460D02*
X14505896Y-12361984D01*
X14505896Y-12361984D02*
X14467801Y-12361984D01*
X14467801Y-12361984D02*
X14448753Y-12352460D01*
X14448753Y-12352460D02*
X14439230Y-12333412D01*
X14439230Y-12333412D02*
X14439230Y-12257222D01*
X14439230Y-12257222D02*
X14448753Y-12238174D01*
X14448753Y-12238174D02*
X14467801Y-12228650D01*
X14467801Y-12228650D02*
X14505896Y-12228650D01*
X14505896Y-12228650D02*
X14524944Y-12238174D01*
X14524944Y-12238174D02*
X14534468Y-12257222D01*
X14534468Y-12257222D02*
X14534468Y-12276269D01*
X14534468Y-12276269D02*
X14439230Y-12295317D01*
X14610658Y-12352460D02*
X14629706Y-12361984D01*
X14629706Y-12361984D02*
X14667801Y-12361984D01*
X14667801Y-12361984D02*
X14686849Y-12352460D01*
X14686849Y-12352460D02*
X14696372Y-12333412D01*
X14696372Y-12333412D02*
X14696372Y-12323888D01*
X14696372Y-12323888D02*
X14686849Y-12304841D01*
X14686849Y-12304841D02*
X14667801Y-12295317D01*
X14667801Y-12295317D02*
X14639230Y-12295317D01*
X14639230Y-12295317D02*
X14620182Y-12285793D01*
X14620182Y-12285793D02*
X14610658Y-12266746D01*
X14610658Y-12266746D02*
X14610658Y-12257222D01*
X14610658Y-12257222D02*
X14620182Y-12238174D01*
X14620182Y-12238174D02*
X14639230Y-12228650D01*
X14639230Y-12228650D02*
X14667801Y-12228650D01*
X14667801Y-12228650D02*
X14686849Y-12238174D01*
X14763039Y-12438174D02*
X14772563Y-12428650D01*
X14772563Y-12428650D02*
X14791611Y-12400079D01*
X14791611Y-12400079D02*
X14801134Y-12381031D01*
X14801134Y-12381031D02*
X14810658Y-12352460D01*
X14810658Y-12352460D02*
X14820182Y-12304841D01*
X14820182Y-12304841D02*
X14820182Y-12266746D01*
X14820182Y-12266746D02*
X14810658Y-12219127D01*
X14810658Y-12219127D02*
X14801134Y-12190555D01*
X14801134Y-12190555D02*
X14791611Y-12171508D01*
X14791611Y-12171508D02*
X14772563Y-12142936D01*
X14772563Y-12142936D02*
X14763039Y-12133412D01*
M02*
