M48
; DRILL file {KiCad 8.0.3} date 2024-06-17T17:54:29+0200
; FORMAT={-:-/ absolute / metric / decimal}
; #@! TF.CreationDate,2024-06-17T17:54:29+02:00
; #@! TF.GenerationSoftware,Kicad,Pcbnew,8.0.3
; #@! TF.FileFunction,Plated,1,2,PTH
FMAT,2
METRIC
; #@! TA.AperFunction,Plated,PTH,ComponentDrill
T1C0.760
; #@! TA.AperFunction,Plated,PTH,ComponentDrill
T2C0.800
; #@! TA.AperFunction,Plated,PTH,ComponentDrill
T3C1.000
%
G90
G05
T1
X110.35Y-91.664
X110.35Y-94.204
X110.35Y-96.744
X112.89Y-90.394
X112.89Y-92.934
X112.89Y-95.474
T2
X133.512Y-102.718
X143.672Y-102.718
T3
X124.114Y-79.096
X124.114Y-96.876
X126.654Y-79.096
X126.654Y-96.876
X129.194Y-79.096
X129.194Y-96.876
X131.734Y-79.096
X131.734Y-96.876
X134.274Y-79.138
X134.274Y-96.876
X136.814Y-79.096
X136.814Y-96.876
X139.354Y-79.096
X139.354Y-96.876
X141.894Y-79.096
X141.894Y-96.876
X144.434Y-79.096
X144.434Y-96.876
X146.974Y-79.096
X146.974Y-96.876
X149.514Y-79.096
X149.514Y-96.876
X152.054Y-79.096
X152.054Y-96.876
X154.594Y-79.096
X154.594Y-96.876
X157.134Y-79.096
X157.134Y-96.876
X159.674Y-79.096
X159.674Y-96.876
X162.214Y-79.096
X162.214Y-96.876
X164.754Y-79.096
X164.754Y-96.876
X167.294Y-79.096
X167.294Y-96.876
X169.834Y-79.096
X169.834Y-96.876
X172.374Y-79.096
X172.374Y-96.876
M30
