%TF.GenerationSoftware,KiCad,Pcbnew,8.0.3*%
%TF.CreationDate,2024-06-17T17:54:32+02:00*%
%TF.ProjectId,Rasppipico f_r HAN-port,52617370-7069-4706-9963-6f2066f67220,rev?*%
%TF.SameCoordinates,Original*%
%TF.FileFunction,Drillmap*%
%TF.FilePolarity,Positive*%
%FSLAX45Y45*%
G04 Gerber Fmt 4.5, Leading zero omitted, Abs format (unit mm)*
G04 Created by KiCad (PCBNEW 8.0.3) date 2024-06-17 17:54:32*
%MOMM*%
%LPD*%
G01*
G04 APERTURE LIST*
%ADD10C,0.050000*%
%ADD11C,0.200000*%
%ADD12C,0.325000*%
G04 APERTURE END LIST*
D10*
X9800000Y-7600000D02*
X17800000Y-7600000D01*
X17800000Y-11100000D01*
X9800000Y-11100000D01*
X9800000Y-7600000D01*
D11*
D12*
X10237500Y-8686900D02*
X10562500Y-9011900D01*
X10562500Y-8686900D02*
X10237500Y-9011900D01*
X10237500Y-9702900D02*
X10562500Y-10027900D01*
X10562500Y-9702900D02*
X10237500Y-10027900D01*
D11*
X10058277Y-11413984D02*
X10058277Y-11213984D01*
X10058277Y-11213984D02*
X10105896Y-11213984D01*
X10105896Y-11213984D02*
X10134467Y-11223508D01*
X10134467Y-11223508D02*
X10153515Y-11242555D01*
X10153515Y-11242555D02*
X10163039Y-11261603D01*
X10163039Y-11261603D02*
X10172563Y-11299698D01*
X10172563Y-11299698D02*
X10172563Y-11328269D01*
X10172563Y-11328269D02*
X10163039Y-11366365D01*
X10163039Y-11366365D02*
X10153515Y-11385412D01*
X10153515Y-11385412D02*
X10134467Y-11404460D01*
X10134467Y-11404460D02*
X10105896Y-11413984D01*
X10105896Y-11413984D02*
X10058277Y-11413984D01*
X10258277Y-11413984D02*
X10258277Y-11280650D01*
X10258277Y-11318746D02*
X10267801Y-11299698D01*
X10267801Y-11299698D02*
X10277324Y-11290174D01*
X10277324Y-11290174D02*
X10296372Y-11280650D01*
X10296372Y-11280650D02*
X10315420Y-11280650D01*
X10382086Y-11413984D02*
X10382086Y-11280650D01*
X10382086Y-11213984D02*
X10372563Y-11223508D01*
X10372563Y-11223508D02*
X10382086Y-11233031D01*
X10382086Y-11233031D02*
X10391610Y-11223508D01*
X10391610Y-11223508D02*
X10382086Y-11213984D01*
X10382086Y-11213984D02*
X10382086Y-11233031D01*
X10505896Y-11413984D02*
X10486848Y-11404460D01*
X10486848Y-11404460D02*
X10477324Y-11385412D01*
X10477324Y-11385412D02*
X10477324Y-11213984D01*
X10610658Y-11413984D02*
X10591610Y-11404460D01*
X10591610Y-11404460D02*
X10582086Y-11385412D01*
X10582086Y-11385412D02*
X10582086Y-11213984D01*
X10839229Y-11413984D02*
X10839229Y-11213984D01*
X10839229Y-11213984D02*
X10905896Y-11356841D01*
X10905896Y-11356841D02*
X10972563Y-11213984D01*
X10972563Y-11213984D02*
X10972563Y-11413984D01*
X11153515Y-11413984D02*
X11153515Y-11309222D01*
X11153515Y-11309222D02*
X11143991Y-11290174D01*
X11143991Y-11290174D02*
X11124944Y-11280650D01*
X11124944Y-11280650D02*
X11086848Y-11280650D01*
X11086848Y-11280650D02*
X11067801Y-11290174D01*
X11153515Y-11404460D02*
X11134467Y-11413984D01*
X11134467Y-11413984D02*
X11086848Y-11413984D01*
X11086848Y-11413984D02*
X11067801Y-11404460D01*
X11067801Y-11404460D02*
X11058277Y-11385412D01*
X11058277Y-11385412D02*
X11058277Y-11366365D01*
X11058277Y-11366365D02*
X11067801Y-11347317D01*
X11067801Y-11347317D02*
X11086848Y-11337793D01*
X11086848Y-11337793D02*
X11134467Y-11337793D01*
X11134467Y-11337793D02*
X11153515Y-11328269D01*
X11248753Y-11280650D02*
X11248753Y-11480650D01*
X11248753Y-11290174D02*
X11267801Y-11280650D01*
X11267801Y-11280650D02*
X11305896Y-11280650D01*
X11305896Y-11280650D02*
X11324943Y-11290174D01*
X11324943Y-11290174D02*
X11334467Y-11299698D01*
X11334467Y-11299698D02*
X11343991Y-11318746D01*
X11343991Y-11318746D02*
X11343991Y-11375888D01*
X11343991Y-11375888D02*
X11334467Y-11394936D01*
X11334467Y-11394936D02*
X11324943Y-11404460D01*
X11324943Y-11404460D02*
X11305896Y-11413984D01*
X11305896Y-11413984D02*
X11267801Y-11413984D01*
X11267801Y-11413984D02*
X11248753Y-11404460D01*
X11429705Y-11394936D02*
X11439229Y-11404460D01*
X11439229Y-11404460D02*
X11429705Y-11413984D01*
X11429705Y-11413984D02*
X11420182Y-11404460D01*
X11420182Y-11404460D02*
X11429705Y-11394936D01*
X11429705Y-11394936D02*
X11429705Y-11413984D01*
X11429705Y-11290174D02*
X11439229Y-11299698D01*
X11439229Y-11299698D02*
X11429705Y-11309222D01*
X11429705Y-11309222D02*
X11420182Y-11299698D01*
X11420182Y-11299698D02*
X11429705Y-11290174D01*
X11429705Y-11290174D02*
X11429705Y-11309222D01*
X9597500Y-11642500D02*
X9797500Y-11842500D01*
X9797500Y-11642500D02*
X9597500Y-11842500D01*
X10039229Y-11633984D02*
X10163039Y-11633984D01*
X10163039Y-11633984D02*
X10096372Y-11710174D01*
X10096372Y-11710174D02*
X10124944Y-11710174D01*
X10124944Y-11710174D02*
X10143991Y-11719698D01*
X10143991Y-11719698D02*
X10153515Y-11729222D01*
X10153515Y-11729222D02*
X10163039Y-11748269D01*
X10163039Y-11748269D02*
X10163039Y-11795888D01*
X10163039Y-11795888D02*
X10153515Y-11814936D01*
X10153515Y-11814936D02*
X10143991Y-11824460D01*
X10143991Y-11824460D02*
X10124944Y-11833984D01*
X10124944Y-11833984D02*
X10067801Y-11833984D01*
X10067801Y-11833984D02*
X10048753Y-11824460D01*
X10048753Y-11824460D02*
X10039229Y-11814936D01*
X10248753Y-11814936D02*
X10258277Y-11824460D01*
X10258277Y-11824460D02*
X10248753Y-11833984D01*
X10248753Y-11833984D02*
X10239229Y-11824460D01*
X10239229Y-11824460D02*
X10248753Y-11814936D01*
X10248753Y-11814936D02*
X10248753Y-11833984D01*
X10334467Y-11653031D02*
X10343991Y-11643508D01*
X10343991Y-11643508D02*
X10363039Y-11633984D01*
X10363039Y-11633984D02*
X10410658Y-11633984D01*
X10410658Y-11633984D02*
X10429705Y-11643508D01*
X10429705Y-11643508D02*
X10439229Y-11653031D01*
X10439229Y-11653031D02*
X10448753Y-11672079D01*
X10448753Y-11672079D02*
X10448753Y-11691127D01*
X10448753Y-11691127D02*
X10439229Y-11719698D01*
X10439229Y-11719698D02*
X10324944Y-11833984D01*
X10324944Y-11833984D02*
X10448753Y-11833984D01*
X10629705Y-11633984D02*
X10534467Y-11633984D01*
X10534467Y-11633984D02*
X10524944Y-11729222D01*
X10524944Y-11729222D02*
X10534467Y-11719698D01*
X10534467Y-11719698D02*
X10553515Y-11710174D01*
X10553515Y-11710174D02*
X10601134Y-11710174D01*
X10601134Y-11710174D02*
X10620182Y-11719698D01*
X10620182Y-11719698D02*
X10629705Y-11729222D01*
X10629705Y-11729222D02*
X10639229Y-11748269D01*
X10639229Y-11748269D02*
X10639229Y-11795888D01*
X10639229Y-11795888D02*
X10629705Y-11814936D01*
X10629705Y-11814936D02*
X10620182Y-11824460D01*
X10620182Y-11824460D02*
X10601134Y-11833984D01*
X10601134Y-11833984D02*
X10553515Y-11833984D01*
X10553515Y-11833984D02*
X10534467Y-11824460D01*
X10534467Y-11824460D02*
X10524944Y-11814936D01*
X10763039Y-11633984D02*
X10782086Y-11633984D01*
X10782086Y-11633984D02*
X10801134Y-11643508D01*
X10801134Y-11643508D02*
X10810658Y-11653031D01*
X10810658Y-11653031D02*
X10820182Y-11672079D01*
X10820182Y-11672079D02*
X10829705Y-11710174D01*
X10829705Y-11710174D02*
X10829705Y-11757793D01*
X10829705Y-11757793D02*
X10820182Y-11795888D01*
X10820182Y-11795888D02*
X10810658Y-11814936D01*
X10810658Y-11814936D02*
X10801134Y-11824460D01*
X10801134Y-11824460D02*
X10782086Y-11833984D01*
X10782086Y-11833984D02*
X10763039Y-11833984D01*
X10763039Y-11833984D02*
X10743991Y-11824460D01*
X10743991Y-11824460D02*
X10734467Y-11814936D01*
X10734467Y-11814936D02*
X10724944Y-11795888D01*
X10724944Y-11795888D02*
X10715420Y-11757793D01*
X10715420Y-11757793D02*
X10715420Y-11710174D01*
X10715420Y-11710174D02*
X10724944Y-11672079D01*
X10724944Y-11672079D02*
X10734467Y-11653031D01*
X10734467Y-11653031D02*
X10743991Y-11643508D01*
X10743991Y-11643508D02*
X10763039Y-11633984D01*
X10915420Y-11833984D02*
X10915420Y-11700650D01*
X10915420Y-11719698D02*
X10924944Y-11710174D01*
X10924944Y-11710174D02*
X10943991Y-11700650D01*
X10943991Y-11700650D02*
X10972563Y-11700650D01*
X10972563Y-11700650D02*
X10991610Y-11710174D01*
X10991610Y-11710174D02*
X11001134Y-11729222D01*
X11001134Y-11729222D02*
X11001134Y-11833984D01*
X11001134Y-11729222D02*
X11010658Y-11710174D01*
X11010658Y-11710174D02*
X11029705Y-11700650D01*
X11029705Y-11700650D02*
X11058277Y-11700650D01*
X11058277Y-11700650D02*
X11077325Y-11710174D01*
X11077325Y-11710174D02*
X11086848Y-11729222D01*
X11086848Y-11729222D02*
X11086848Y-11833984D01*
X11182086Y-11833984D02*
X11182086Y-11700650D01*
X11182086Y-11719698D02*
X11191610Y-11710174D01*
X11191610Y-11710174D02*
X11210658Y-11700650D01*
X11210658Y-11700650D02*
X11239229Y-11700650D01*
X11239229Y-11700650D02*
X11258277Y-11710174D01*
X11258277Y-11710174D02*
X11267801Y-11729222D01*
X11267801Y-11729222D02*
X11267801Y-11833984D01*
X11267801Y-11729222D02*
X11277324Y-11710174D01*
X11277324Y-11710174D02*
X11296372Y-11700650D01*
X11296372Y-11700650D02*
X11324943Y-11700650D01*
X11324943Y-11700650D02*
X11343991Y-11710174D01*
X11343991Y-11710174D02*
X11353515Y-11729222D01*
X11353515Y-11729222D02*
X11353515Y-11833984D01*
X11743991Y-11624460D02*
X11572563Y-11881603D01*
X12001134Y-11633984D02*
X12020182Y-11633984D01*
X12020182Y-11633984D02*
X12039229Y-11643508D01*
X12039229Y-11643508D02*
X12048753Y-11653031D01*
X12048753Y-11653031D02*
X12058277Y-11672079D01*
X12058277Y-11672079D02*
X12067801Y-11710174D01*
X12067801Y-11710174D02*
X12067801Y-11757793D01*
X12067801Y-11757793D02*
X12058277Y-11795888D01*
X12058277Y-11795888D02*
X12048753Y-11814936D01*
X12048753Y-11814936D02*
X12039229Y-11824460D01*
X12039229Y-11824460D02*
X12020182Y-11833984D01*
X12020182Y-11833984D02*
X12001134Y-11833984D01*
X12001134Y-11833984D02*
X11982086Y-11824460D01*
X11982086Y-11824460D02*
X11972563Y-11814936D01*
X11972563Y-11814936D02*
X11963039Y-11795888D01*
X11963039Y-11795888D02*
X11953515Y-11757793D01*
X11953515Y-11757793D02*
X11953515Y-11710174D01*
X11953515Y-11710174D02*
X11963039Y-11672079D01*
X11963039Y-11672079D02*
X11972563Y-11653031D01*
X11972563Y-11653031D02*
X11982086Y-11643508D01*
X11982086Y-11643508D02*
X12001134Y-11633984D01*
X12153515Y-11814936D02*
X12163039Y-11824460D01*
X12163039Y-11824460D02*
X12153515Y-11833984D01*
X12153515Y-11833984D02*
X12143991Y-11824460D01*
X12143991Y-11824460D02*
X12153515Y-11814936D01*
X12153515Y-11814936D02*
X12153515Y-11833984D01*
X12353515Y-11833984D02*
X12239229Y-11833984D01*
X12296372Y-11833984D02*
X12296372Y-11633984D01*
X12296372Y-11633984D02*
X12277325Y-11662555D01*
X12277325Y-11662555D02*
X12258277Y-11681603D01*
X12258277Y-11681603D02*
X12239229Y-11691127D01*
X12429706Y-11653031D02*
X12439229Y-11643508D01*
X12439229Y-11643508D02*
X12458277Y-11633984D01*
X12458277Y-11633984D02*
X12505896Y-11633984D01*
X12505896Y-11633984D02*
X12524944Y-11643508D01*
X12524944Y-11643508D02*
X12534467Y-11653031D01*
X12534467Y-11653031D02*
X12543991Y-11672079D01*
X12543991Y-11672079D02*
X12543991Y-11691127D01*
X12543991Y-11691127D02*
X12534467Y-11719698D01*
X12534467Y-11719698D02*
X12420182Y-11833984D01*
X12420182Y-11833984D02*
X12543991Y-11833984D01*
X12658277Y-11719698D02*
X12639229Y-11710174D01*
X12639229Y-11710174D02*
X12629706Y-11700650D01*
X12629706Y-11700650D02*
X12620182Y-11681603D01*
X12620182Y-11681603D02*
X12620182Y-11672079D01*
X12620182Y-11672079D02*
X12629706Y-11653031D01*
X12629706Y-11653031D02*
X12639229Y-11643508D01*
X12639229Y-11643508D02*
X12658277Y-11633984D01*
X12658277Y-11633984D02*
X12696372Y-11633984D01*
X12696372Y-11633984D02*
X12715420Y-11643508D01*
X12715420Y-11643508D02*
X12724944Y-11653031D01*
X12724944Y-11653031D02*
X12734467Y-11672079D01*
X12734467Y-11672079D02*
X12734467Y-11681603D01*
X12734467Y-11681603D02*
X12724944Y-11700650D01*
X12724944Y-11700650D02*
X12715420Y-11710174D01*
X12715420Y-11710174D02*
X12696372Y-11719698D01*
X12696372Y-11719698D02*
X12658277Y-11719698D01*
X12658277Y-11719698D02*
X12639229Y-11729222D01*
X12639229Y-11729222D02*
X12629706Y-11738746D01*
X12629706Y-11738746D02*
X12620182Y-11757793D01*
X12620182Y-11757793D02*
X12620182Y-11795888D01*
X12620182Y-11795888D02*
X12629706Y-11814936D01*
X12629706Y-11814936D02*
X12639229Y-11824460D01*
X12639229Y-11824460D02*
X12658277Y-11833984D01*
X12658277Y-11833984D02*
X12696372Y-11833984D01*
X12696372Y-11833984D02*
X12715420Y-11824460D01*
X12715420Y-11824460D02*
X12724944Y-11814936D01*
X12724944Y-11814936D02*
X12734467Y-11795888D01*
X12734467Y-11795888D02*
X12734467Y-11757793D01*
X12734467Y-11757793D02*
X12724944Y-11738746D01*
X12724944Y-11738746D02*
X12715420Y-11729222D01*
X12715420Y-11729222D02*
X12696372Y-11719698D01*
X12858277Y-11633984D02*
X12877325Y-11633984D01*
X12877325Y-11633984D02*
X12896372Y-11643508D01*
X12896372Y-11643508D02*
X12905896Y-11653031D01*
X12905896Y-11653031D02*
X12915420Y-11672079D01*
X12915420Y-11672079D02*
X12924944Y-11710174D01*
X12924944Y-11710174D02*
X12924944Y-11757793D01*
X12924944Y-11757793D02*
X12915420Y-11795888D01*
X12915420Y-11795888D02*
X12905896Y-11814936D01*
X12905896Y-11814936D02*
X12896372Y-11824460D01*
X12896372Y-11824460D02*
X12877325Y-11833984D01*
X12877325Y-11833984D02*
X12858277Y-11833984D01*
X12858277Y-11833984D02*
X12839229Y-11824460D01*
X12839229Y-11824460D02*
X12829706Y-11814936D01*
X12829706Y-11814936D02*
X12820182Y-11795888D01*
X12820182Y-11795888D02*
X12810658Y-11757793D01*
X12810658Y-11757793D02*
X12810658Y-11710174D01*
X12810658Y-11710174D02*
X12820182Y-11672079D01*
X12820182Y-11672079D02*
X12829706Y-11653031D01*
X12829706Y-11653031D02*
X12839229Y-11643508D01*
X12839229Y-11643508D02*
X12858277Y-11633984D01*
X13001134Y-11633984D02*
X13001134Y-11672079D01*
X13077325Y-11633984D02*
X13077325Y-11672079D01*
X13372563Y-11910174D02*
X13363039Y-11900650D01*
X13363039Y-11900650D02*
X13343991Y-11872079D01*
X13343991Y-11872079D02*
X13334468Y-11853031D01*
X13334468Y-11853031D02*
X13324944Y-11824460D01*
X13324944Y-11824460D02*
X13315420Y-11776841D01*
X13315420Y-11776841D02*
X13315420Y-11738746D01*
X13315420Y-11738746D02*
X13324944Y-11691127D01*
X13324944Y-11691127D02*
X13334468Y-11662555D01*
X13334468Y-11662555D02*
X13343991Y-11643508D01*
X13343991Y-11643508D02*
X13363039Y-11614936D01*
X13363039Y-11614936D02*
X13372563Y-11605412D01*
X13439229Y-11653031D02*
X13448753Y-11643508D01*
X13448753Y-11643508D02*
X13467801Y-11633984D01*
X13467801Y-11633984D02*
X13515420Y-11633984D01*
X13515420Y-11633984D02*
X13534468Y-11643508D01*
X13534468Y-11643508D02*
X13543991Y-11653031D01*
X13543991Y-11653031D02*
X13553515Y-11672079D01*
X13553515Y-11672079D02*
X13553515Y-11691127D01*
X13553515Y-11691127D02*
X13543991Y-11719698D01*
X13543991Y-11719698D02*
X13429706Y-11833984D01*
X13429706Y-11833984D02*
X13553515Y-11833984D01*
X13791610Y-11833984D02*
X13791610Y-11633984D01*
X13877325Y-11833984D02*
X13877325Y-11729222D01*
X13877325Y-11729222D02*
X13867801Y-11710174D01*
X13867801Y-11710174D02*
X13848753Y-11700650D01*
X13848753Y-11700650D02*
X13820182Y-11700650D01*
X13820182Y-11700650D02*
X13801134Y-11710174D01*
X13801134Y-11710174D02*
X13791610Y-11719698D01*
X14001134Y-11833984D02*
X13982087Y-11824460D01*
X13982087Y-11824460D02*
X13972563Y-11814936D01*
X13972563Y-11814936D02*
X13963039Y-11795888D01*
X13963039Y-11795888D02*
X13963039Y-11738746D01*
X13963039Y-11738746D02*
X13972563Y-11719698D01*
X13972563Y-11719698D02*
X13982087Y-11710174D01*
X13982087Y-11710174D02*
X14001134Y-11700650D01*
X14001134Y-11700650D02*
X14029706Y-11700650D01*
X14029706Y-11700650D02*
X14048753Y-11710174D01*
X14048753Y-11710174D02*
X14058277Y-11719698D01*
X14058277Y-11719698D02*
X14067801Y-11738746D01*
X14067801Y-11738746D02*
X14067801Y-11795888D01*
X14067801Y-11795888D02*
X14058277Y-11814936D01*
X14058277Y-11814936D02*
X14048753Y-11824460D01*
X14048753Y-11824460D02*
X14029706Y-11833984D01*
X14029706Y-11833984D02*
X14001134Y-11833984D01*
X14182087Y-11833984D02*
X14163039Y-11824460D01*
X14163039Y-11824460D02*
X14153515Y-11805412D01*
X14153515Y-11805412D02*
X14153515Y-11633984D01*
X14334468Y-11824460D02*
X14315420Y-11833984D01*
X14315420Y-11833984D02*
X14277325Y-11833984D01*
X14277325Y-11833984D02*
X14258277Y-11824460D01*
X14258277Y-11824460D02*
X14248753Y-11805412D01*
X14248753Y-11805412D02*
X14248753Y-11729222D01*
X14248753Y-11729222D02*
X14258277Y-11710174D01*
X14258277Y-11710174D02*
X14277325Y-11700650D01*
X14277325Y-11700650D02*
X14315420Y-11700650D01*
X14315420Y-11700650D02*
X14334468Y-11710174D01*
X14334468Y-11710174D02*
X14343991Y-11729222D01*
X14343991Y-11729222D02*
X14343991Y-11748269D01*
X14343991Y-11748269D02*
X14248753Y-11767317D01*
X14420182Y-11824460D02*
X14439230Y-11833984D01*
X14439230Y-11833984D02*
X14477325Y-11833984D01*
X14477325Y-11833984D02*
X14496372Y-11824460D01*
X14496372Y-11824460D02*
X14505896Y-11805412D01*
X14505896Y-11805412D02*
X14505896Y-11795888D01*
X14505896Y-11795888D02*
X14496372Y-11776841D01*
X14496372Y-11776841D02*
X14477325Y-11767317D01*
X14477325Y-11767317D02*
X14448753Y-11767317D01*
X14448753Y-11767317D02*
X14429706Y-11757793D01*
X14429706Y-11757793D02*
X14420182Y-11738746D01*
X14420182Y-11738746D02*
X14420182Y-11729222D01*
X14420182Y-11729222D02*
X14429706Y-11710174D01*
X14429706Y-11710174D02*
X14448753Y-11700650D01*
X14448753Y-11700650D02*
X14477325Y-11700650D01*
X14477325Y-11700650D02*
X14496372Y-11710174D01*
X14572563Y-11910174D02*
X14582087Y-11900650D01*
X14582087Y-11900650D02*
X14601134Y-11872079D01*
X14601134Y-11872079D02*
X14610658Y-11853031D01*
X14610658Y-11853031D02*
X14620182Y-11824460D01*
X14620182Y-11824460D02*
X14629706Y-11776841D01*
X14629706Y-11776841D02*
X14629706Y-11738746D01*
X14629706Y-11738746D02*
X14620182Y-11691127D01*
X14620182Y-11691127D02*
X14610658Y-11662555D01*
X14610658Y-11662555D02*
X14601134Y-11643508D01*
X14601134Y-11643508D02*
X14582087Y-11614936D01*
X14582087Y-11614936D02*
X14572563Y-11605412D01*
X14934468Y-11910174D02*
X14924944Y-11900650D01*
X14924944Y-11900650D02*
X14905896Y-11872079D01*
X14905896Y-11872079D02*
X14896372Y-11853031D01*
X14896372Y-11853031D02*
X14886849Y-11824460D01*
X14886849Y-11824460D02*
X14877325Y-11776841D01*
X14877325Y-11776841D02*
X14877325Y-11738746D01*
X14877325Y-11738746D02*
X14886849Y-11691127D01*
X14886849Y-11691127D02*
X14896372Y-11662555D01*
X14896372Y-11662555D02*
X14905896Y-11643508D01*
X14905896Y-11643508D02*
X14924944Y-11614936D01*
X14924944Y-11614936D02*
X14934468Y-11605412D01*
X15010658Y-11700650D02*
X15010658Y-11833984D01*
X15010658Y-11719698D02*
X15020182Y-11710174D01*
X15020182Y-11710174D02*
X15039230Y-11700650D01*
X15039230Y-11700650D02*
X15067801Y-11700650D01*
X15067801Y-11700650D02*
X15086849Y-11710174D01*
X15086849Y-11710174D02*
X15096372Y-11729222D01*
X15096372Y-11729222D02*
X15096372Y-11833984D01*
X15220182Y-11833984D02*
X15201134Y-11824460D01*
X15201134Y-11824460D02*
X15191611Y-11814936D01*
X15191611Y-11814936D02*
X15182087Y-11795888D01*
X15182087Y-11795888D02*
X15182087Y-11738746D01*
X15182087Y-11738746D02*
X15191611Y-11719698D01*
X15191611Y-11719698D02*
X15201134Y-11710174D01*
X15201134Y-11710174D02*
X15220182Y-11700650D01*
X15220182Y-11700650D02*
X15248753Y-11700650D01*
X15248753Y-11700650D02*
X15267801Y-11710174D01*
X15267801Y-11710174D02*
X15277325Y-11719698D01*
X15277325Y-11719698D02*
X15286849Y-11738746D01*
X15286849Y-11738746D02*
X15286849Y-11795888D01*
X15286849Y-11795888D02*
X15277325Y-11814936D01*
X15277325Y-11814936D02*
X15267801Y-11824460D01*
X15267801Y-11824460D02*
X15248753Y-11833984D01*
X15248753Y-11833984D02*
X15220182Y-11833984D01*
X15343992Y-11700650D02*
X15420182Y-11700650D01*
X15372563Y-11633984D02*
X15372563Y-11805412D01*
X15372563Y-11805412D02*
X15382087Y-11824460D01*
X15382087Y-11824460D02*
X15401134Y-11833984D01*
X15401134Y-11833984D02*
X15420182Y-11833984D01*
X15639230Y-11700650D02*
X15639230Y-11900650D01*
X15639230Y-11710174D02*
X15658277Y-11700650D01*
X15658277Y-11700650D02*
X15696373Y-11700650D01*
X15696373Y-11700650D02*
X15715420Y-11710174D01*
X15715420Y-11710174D02*
X15724944Y-11719698D01*
X15724944Y-11719698D02*
X15734468Y-11738746D01*
X15734468Y-11738746D02*
X15734468Y-11795888D01*
X15734468Y-11795888D02*
X15724944Y-11814936D01*
X15724944Y-11814936D02*
X15715420Y-11824460D01*
X15715420Y-11824460D02*
X15696373Y-11833984D01*
X15696373Y-11833984D02*
X15658277Y-11833984D01*
X15658277Y-11833984D02*
X15639230Y-11824460D01*
X15848753Y-11833984D02*
X15829706Y-11824460D01*
X15829706Y-11824460D02*
X15820182Y-11805412D01*
X15820182Y-11805412D02*
X15820182Y-11633984D01*
X16010658Y-11833984D02*
X16010658Y-11729222D01*
X16010658Y-11729222D02*
X16001134Y-11710174D01*
X16001134Y-11710174D02*
X15982087Y-11700650D01*
X15982087Y-11700650D02*
X15943992Y-11700650D01*
X15943992Y-11700650D02*
X15924944Y-11710174D01*
X16010658Y-11824460D02*
X15991611Y-11833984D01*
X15991611Y-11833984D02*
X15943992Y-11833984D01*
X15943992Y-11833984D02*
X15924944Y-11824460D01*
X15924944Y-11824460D02*
X15915420Y-11805412D01*
X15915420Y-11805412D02*
X15915420Y-11786365D01*
X15915420Y-11786365D02*
X15924944Y-11767317D01*
X15924944Y-11767317D02*
X15943992Y-11757793D01*
X15943992Y-11757793D02*
X15991611Y-11757793D01*
X15991611Y-11757793D02*
X16010658Y-11748269D01*
X16077325Y-11700650D02*
X16153515Y-11700650D01*
X16105896Y-11633984D02*
X16105896Y-11805412D01*
X16105896Y-11805412D02*
X16115420Y-11824460D01*
X16115420Y-11824460D02*
X16134468Y-11833984D01*
X16134468Y-11833984D02*
X16153515Y-11833984D01*
X16296373Y-11824460D02*
X16277325Y-11833984D01*
X16277325Y-11833984D02*
X16239230Y-11833984D01*
X16239230Y-11833984D02*
X16220182Y-11824460D01*
X16220182Y-11824460D02*
X16210658Y-11805412D01*
X16210658Y-11805412D02*
X16210658Y-11729222D01*
X16210658Y-11729222D02*
X16220182Y-11710174D01*
X16220182Y-11710174D02*
X16239230Y-11700650D01*
X16239230Y-11700650D02*
X16277325Y-11700650D01*
X16277325Y-11700650D02*
X16296373Y-11710174D01*
X16296373Y-11710174D02*
X16305896Y-11729222D01*
X16305896Y-11729222D02*
X16305896Y-11748269D01*
X16305896Y-11748269D02*
X16210658Y-11767317D01*
X16477325Y-11833984D02*
X16477325Y-11633984D01*
X16477325Y-11824460D02*
X16458277Y-11833984D01*
X16458277Y-11833984D02*
X16420182Y-11833984D01*
X16420182Y-11833984D02*
X16401134Y-11824460D01*
X16401134Y-11824460D02*
X16391611Y-11814936D01*
X16391611Y-11814936D02*
X16382087Y-11795888D01*
X16382087Y-11795888D02*
X16382087Y-11738746D01*
X16382087Y-11738746D02*
X16391611Y-11719698D01*
X16391611Y-11719698D02*
X16401134Y-11710174D01*
X16401134Y-11710174D02*
X16420182Y-11700650D01*
X16420182Y-11700650D02*
X16458277Y-11700650D01*
X16458277Y-11700650D02*
X16477325Y-11710174D01*
X16553515Y-11910174D02*
X16563039Y-11900650D01*
X16563039Y-11900650D02*
X16582087Y-11872079D01*
X16582087Y-11872079D02*
X16591611Y-11853031D01*
X16591611Y-11853031D02*
X16601134Y-11824460D01*
X16601134Y-11824460D02*
X16610658Y-11776841D01*
X16610658Y-11776841D02*
X16610658Y-11738746D01*
X16610658Y-11738746D02*
X16601134Y-11691127D01*
X16601134Y-11691127D02*
X16591611Y-11662555D01*
X16591611Y-11662555D02*
X16582087Y-11643508D01*
X16582087Y-11643508D02*
X16563039Y-11614936D01*
X16563039Y-11614936D02*
X16553515Y-11605412D01*
M02*
