G04 #@! TF.GenerationSoftware,KiCad,Pcbnew,8.0.3*
G04 #@! TF.CreationDate,2024-06-17T11:33:57+02:00*
G04 #@! TF.ProjectId,Rasppipico f_r HAN-port,52617370-7069-4706-9963-6f2066f67220,rev?*
G04 #@! TF.SameCoordinates,Original*
G04 #@! TF.FileFunction,Soldermask,Top*
G04 #@! TF.FilePolarity,Negative*
%FSLAX46Y46*%
G04 Gerber Fmt 4.6, Leading zero omitted, Abs format (unit mm)*
G04 Created by KiCad (PCBNEW 8.0.3) date 2024-06-17 11:33:57*
%MOMM*%
%LPD*%
G01*
G04 APERTURE LIST*
G04 Aperture macros list*
%AMRoundRect*
0 Rectangle with rounded corners*
0 $1 Rounding radius*
0 $2 $3 $4 $5 $6 $7 $8 $9 X,Y pos of 4 corners*
0 Add a 4 corners polygon primitive as box body*
4,1,4,$2,$3,$4,$5,$6,$7,$8,$9,$2,$3,0*
0 Add four circle primitives for the rounded corners*
1,1,$1+$1,$2,$3*
1,1,$1+$1,$4,$5*
1,1,$1+$1,$6,$7*
1,1,$1+$1,$8,$9*
0 Add four rect primitives between the rounded corners*
20,1,$1+$1,$2,$3,$4,$5,0*
20,1,$1+$1,$4,$5,$6,$7,0*
20,1,$1+$1,$6,$7,$8,$9,0*
20,1,$1+$1,$8,$9,$2,$3,0*%
G04 Aperture macros list end*
%ADD10C,3.250000*%
%ADD11RoundRect,0.250000X-0.510000X-0.510000X0.510000X-0.510000X0.510000X0.510000X-0.510000X0.510000X0*%
%ADD12C,1.520000*%
%ADD13C,1.600000*%
%ADD14RoundRect,0.200000X-0.600000X-0.600000X0.600000X-0.600000X0.600000X0.600000X-0.600000X0.600000X0*%
%ADD15O,2.800000X2.800000*%
%ADD16C,2.800000*%
G04 APERTURE END LIST*
D10*
X142494000Y-122024000D03*
X152654000Y-122024000D03*
D11*
X144394000Y-113134000D03*
D12*
X145664000Y-115674000D03*
X146934000Y-113134000D03*
X148204000Y-115674000D03*
X149474000Y-113134000D03*
X150744000Y-115674000D03*
D13*
X133096000Y-55626000D03*
X133096000Y-58166000D03*
D14*
X133096000Y-60706000D03*
D13*
X133096000Y-63246000D03*
X133096000Y-65786000D03*
X133096000Y-68326000D03*
X133096000Y-70866000D03*
D14*
X133096000Y-73406000D03*
D13*
X133096000Y-75946000D03*
X133096000Y-78486000D03*
X133096000Y-81026000D03*
X133096000Y-83566000D03*
D14*
X133096000Y-86106000D03*
D13*
X133096000Y-88646000D03*
X133096000Y-91186000D03*
X133137881Y-93726000D03*
X133096000Y-96266000D03*
D14*
X133096000Y-98806000D03*
D13*
X133096000Y-101346000D03*
X133096000Y-103886000D03*
X150876000Y-103886000D03*
X150876000Y-101346000D03*
D14*
X150876000Y-98806000D03*
D13*
X150876000Y-96266000D03*
X150876000Y-93726000D03*
X150876000Y-91186000D03*
X150876000Y-88646000D03*
D14*
X150876000Y-86106000D03*
D13*
X150876000Y-83566000D03*
X150876000Y-81026000D03*
X150876000Y-78486000D03*
X150876000Y-75946000D03*
D14*
X150876000Y-73406000D03*
D13*
X150876000Y-70866000D03*
X150876000Y-68326000D03*
X150876000Y-65786000D03*
X150876000Y-63246000D03*
D14*
X150876000Y-60706000D03*
D13*
X150876000Y-58166000D03*
X150876000Y-55626000D03*
D15*
X156718000Y-104648000D03*
D16*
X156718000Y-84328000D03*
M02*
