G04 #@! TF.GenerationSoftware,KiCad,Pcbnew,8.0.3*
G04 #@! TF.CreationDate,2024-06-17T12:07:06+02:00*
G04 #@! TF.ProjectId,Rasppipico f_r HAN-port,52617370-7069-4706-9963-6f2066f67220,rev?*
G04 #@! TF.SameCoordinates,Original*
G04 #@! TF.FileFunction,Copper,L1,Top*
G04 #@! TF.FilePolarity,Positive*
%FSLAX46Y46*%
G04 Gerber Fmt 4.6, Leading zero omitted, Abs format (unit mm)*
G04 Created by KiCad (PCBNEW 8.0.3) date 2024-06-17 12:07:06*
%MOMM*%
%LPD*%
G01*
G04 APERTURE LIST*
G04 Aperture macros list*
%AMRoundRect*
0 Rectangle with rounded corners*
0 $1 Rounding radius*
0 $2 $3 $4 $5 $6 $7 $8 $9 X,Y pos of 4 corners*
0 Add a 4 corners polygon primitive as box body*
4,1,4,$2,$3,$4,$5,$6,$7,$8,$9,$2,$3,0*
0 Add four circle primitives for the rounded corners*
1,1,$1+$1,$2,$3*
1,1,$1+$1,$4,$5*
1,1,$1+$1,$6,$7*
1,1,$1+$1,$8,$9*
0 Add four rect primitives between the rounded corners*
20,1,$1+$1,$2,$3,$4,$5,0*
20,1,$1+$1,$4,$5,$6,$7,0*
20,1,$1+$1,$6,$7,$8,$9,0*
20,1,$1+$1,$8,$9,$2,$3,0*%
G04 Aperture macros list end*
G04 #@! TA.AperFunction,ComponentPad*
%ADD10O,1.600000X1.600000*%
G04 #@! TD*
G04 #@! TA.AperFunction,ComponentPad*
%ADD11C,1.600000*%
G04 #@! TD*
G04 #@! TA.AperFunction,ComponentPad*
%ADD12C,1.520000*%
G04 #@! TD*
G04 #@! TA.AperFunction,ComponentPad*
%ADD13RoundRect,0.250000X-0.510000X-0.510000X0.510000X-0.510000X0.510000X0.510000X-0.510000X0.510000X0*%
G04 #@! TD*
G04 #@! TA.AperFunction,ComponentPad*
%ADD14RoundRect,0.200000X-0.600000X-0.600000X0.600000X-0.600000X0.600000X0.600000X-0.600000X0.600000X0*%
G04 #@! TD*
G04 #@! TA.AperFunction,Conductor*
%ADD15C,0.200000*%
G04 #@! TD*
G04 APERTURE END LIST*
D10*
X156718000Y-94488000D03*
D11*
X156718000Y-84328000D03*
D12*
X150744000Y-115674000D03*
X149474000Y-113134000D03*
X148204000Y-115674000D03*
X146934000Y-113134000D03*
X145664000Y-115674000D03*
D13*
X144394000Y-113134000D03*
D11*
X133096000Y-55626000D03*
X133096000Y-58166000D03*
D14*
X133096000Y-60706000D03*
D11*
X133096000Y-63246000D03*
X133096000Y-65786000D03*
X133096000Y-68326000D03*
X133096000Y-70866000D03*
D14*
X133096000Y-73406000D03*
D11*
X133096000Y-75946000D03*
X133096000Y-78486000D03*
X133096000Y-81026000D03*
X133096000Y-83566000D03*
D14*
X133096000Y-86106000D03*
D11*
X133096000Y-88646000D03*
X133096000Y-91186000D03*
X133137881Y-93726000D03*
X133096000Y-96266000D03*
D14*
X133096000Y-98806000D03*
D11*
X133096000Y-101346000D03*
X133096000Y-103886000D03*
X150876000Y-103886000D03*
X150876000Y-101346000D03*
D14*
X150876000Y-98806000D03*
D11*
X150876000Y-96266000D03*
X150876000Y-93726000D03*
X150876000Y-91186000D03*
X150876000Y-88646000D03*
D14*
X150876000Y-86106000D03*
D11*
X150876000Y-83566000D03*
X150876000Y-81026000D03*
X150876000Y-78486000D03*
X150876000Y-75946000D03*
D14*
X150876000Y-73406000D03*
D11*
X150876000Y-70866000D03*
X150876000Y-68326000D03*
X150876000Y-65786000D03*
X150876000Y-63246000D03*
D14*
X150876000Y-60706000D03*
D11*
X150876000Y-58166000D03*
X150876000Y-55626000D03*
D15*
X156718000Y-104648000D02*
X156718000Y-94488000D01*
X148100000Y-114300000D02*
X146934000Y-113134000D01*
X149370000Y-114300000D02*
X148100000Y-114300000D01*
X150744000Y-115674000D02*
X149370000Y-114300000D01*
X151130000Y-66040000D02*
X150876000Y-65786000D01*
X155956000Y-66040000D02*
X151130000Y-66040000D01*
X156718000Y-66802000D02*
X155956000Y-66040000D01*
X156718000Y-84328000D02*
X156718000Y-66802000D01*
X145942000Y-61633686D02*
X146869686Y-60706000D01*
X146869686Y-60706000D02*
X150876000Y-60706000D01*
X145942000Y-111906000D02*
X145942000Y-61633686D01*
X146934000Y-112898000D02*
X145942000Y-111906000D01*
X146934000Y-113134000D02*
X146934000Y-112898000D01*
X148590000Y-58420000D02*
X150622000Y-58420000D01*
X145542000Y-61468000D02*
X148590000Y-58420000D01*
X145542000Y-111986000D02*
X145542000Y-61468000D01*
X144394000Y-113134000D02*
X145542000Y-111986000D01*
X156718000Y-107696000D02*
X156718000Y-104648000D01*
X149474000Y-109352000D02*
X150368000Y-108458000D01*
X155956000Y-108458000D02*
X156718000Y-107696000D01*
X149474000Y-113134000D02*
X149474000Y-109352000D01*
X150368000Y-108458000D02*
X155956000Y-108458000D01*
X150744000Y-115674000D02*
X151016000Y-115674000D01*
X144394000Y-114404000D02*
X145664000Y-115674000D01*
X144394000Y-113134000D02*
X144394000Y-114404000D01*
X156718000Y-94488000D02*
X160020000Y-91186000D01*
X160020000Y-65532000D02*
X151384000Y-56896000D01*
X160020000Y-91186000D02*
X160020000Y-65532000D01*
X145142000Y-61302314D02*
X145142000Y-68218000D01*
X151384000Y-56896000D02*
X149548314Y-56896000D01*
X145142000Y-68218000D02*
X142494000Y-70866000D01*
X149548314Y-56896000D02*
X145142000Y-61302314D01*
X142494000Y-70866000D02*
X133096000Y-70866000D01*
M02*
